<?xml version="1.0" encoding="utf-8" standalone="no"?>
<!DOCTYPE svg PUBLIC "-//W3C//DTD SVG 1.1//EN"
  "http://www.w3.org/Graphics/SVG/1.1/DTD/svg11.dtd">
<svg xmlns:xlink="http://www.w3.org/1999/xlink" width="864pt" height="432pt" viewBox="0 0 864 432" xmlns="http://www.w3.org/2000/svg" version="1.1">
 <metadata>
  <rdf:RDF xmlns:dc="http://purl.org/dc/elements/1.1/" xmlns:cc="http://creativecommons.org/ns#" xmlns:rdf="http://www.w3.org/1999/02/22-rdf-syntax-ns#">
   <cc:Work>
    <dc:type rdf:resource="http://purl.org/dc/dcmitype/StillImage"/>
    <dc:date>2025-07-21T11:05:23.617897</dc:date>
    <dc:format>image/svg+xml</dc:format>
    <dc:creator>
     <cc:Agent>
      <dc:title>Matplotlib v3.9.4, https://matplotlib.org/</dc:title>
     </cc:Agent>
    </dc:creator>
   </cc:Work>
  </rdf:RDF>
 </metadata>
 <defs>
  <style type="text/css">*{stroke-linejoin: round; stroke-linecap: butt}</style>
 </defs>
 <g id="figure_1">
  <g id="patch_1">
   <path d="M 0 432 
L 864 432 
L 864 0 
L 0 0 
z
" style="fill: #ffffff"/>
  </g>
  <g id="axes_1">
   <g id="patch_2">
    <path d="M 54.02 243.630198 
L 853.2 243.630198 
L 853.2 26.88 
L 54.02 26.88 
z
" style="fill: #ffffff"/>
   </g>
   <g id="patch_3">
    <path d="M 62.594893 243.630198 
L 71.741445 243.630198 
L 71.741445 60.558821 
L 62.594893 60.558821 
z
" clip-path="url(#p6c31c5698b)" style="fill: #1f77b4"/>
   </g>
   <g id="patch_4">
    <path d="M 96.894464 243.630198 
L 106.041016 243.630198 
L 106.041016 180.502137 
L 96.894464 180.502137 
z
" clip-path="url(#p6c31c5698b)" style="fill: #1f77b4"/>
   </g>
   <g id="patch_5">
    <path d="M 131.194034 243.630198 
L 140.340587 243.630198 
L 140.340587 153.357071 
L 131.194034 153.357071 
z
" clip-path="url(#p6c31c5698b)" style="fill: #1f77b4"/>
   </g>
   <g id="patch_6">
    <path d="M 165.493605 243.630198 
L 174.640157 243.630198 
L 174.640157 233.529708 
L 165.493605 233.529708 
z
" clip-path="url(#p6c31c5698b)" style="fill: #1f77b4"/>
   </g>
   <g id="patch_7">
    <path d="M 199.793176 243.630198 
L 208.939728 243.630198 
L 208.939728 189.340066 
L 199.793176 189.340066 
z
" clip-path="url(#p6c31c5698b)" style="fill: #1f77b4"/>
   </g>
   <g id="patch_8">
    <path d="M 234.092747 243.630198 
L 243.239299 243.630198 
L 243.239299 158.407316 
L 234.092747 158.407316 
z
" clip-path="url(#p6c31c5698b)" style="fill: #1f77b4"/>
   </g>
   <g id="patch_9">
    <path d="M 268.392318 243.630198 
L 277.53887 243.630198 
L 277.53887 205.753362 
L 268.392318 205.753362 
z
" clip-path="url(#p6c31c5698b)" style="fill: #1f77b4"/>
   </g>
   <g id="patch_10">
    <path d="M 302.691888 243.630198 
L 311.838441 243.630198 
L 311.838441 216.485132 
L 302.691888 216.485132 
z
" clip-path="url(#p6c31c5698b)" style="fill: #1f77b4"/>
   </g>
   <g id="patch_11">
    <path d="M 336.991459 243.630198 
L 346.138011 243.630198 
L 346.138011 198.177994 
L 336.991459 198.177994 
z
" clip-path="url(#p6c31c5698b)" style="fill: #1f77b4"/>
   </g>
   <g id="patch_12">
    <path d="M 371.29103 243.630198 
L 380.437582 243.630198 
L 380.437582 113.586392 
L 371.29103 113.586392 
z
" clip-path="url(#p6c31c5698b)" style="fill: #1f77b4"/>
   </g>
   <g id="patch_13">
    <path d="M 405.590601 243.630198 
L 414.737153 243.630198 
L 414.737153 181.133418 
L 405.590601 181.133418 
z
" clip-path="url(#p6c31c5698b)" style="fill: #1f77b4"/>
   </g>
   <g id="patch_14">
    <path d="M 439.890172 243.630198 
L 449.036724 243.630198 
L 449.036724 205.122081 
L 439.890172 205.122081 
z
" clip-path="url(#p6c31c5698b)" style="fill: #1f77b4"/>
   </g>
   <g id="patch_15">
    <path d="M 474.189742 243.630198 
L 483.336295 243.630198 
L 483.336295 38.463999 
L 474.189742 38.463999 
z
" clip-path="url(#p6c31c5698b)" style="fill: #1f77b4"/>
   </g>
   <g id="patch_16">
    <path d="M 508.489313 243.630198 
L 517.635866 243.630198 
L 517.635866 210.172326 
L 508.489313 210.172326 
z
" clip-path="url(#p6c31c5698b)" style="fill: #1f77b4"/>
   </g>
   <g id="patch_17">
    <path d="M 542.788884 243.630198 
L 551.935436 243.630198 
L 551.935436 207.647203 
L 542.788884 207.647203 
z
" clip-path="url(#p6c31c5698b)" style="fill: #1f77b4"/>
   </g>
   <g id="patch_18">
    <path d="M 577.088455 243.630198 
L 586.235007 243.630198 
L 586.235007 223.429219 
L 577.088455 223.429219 
z
" clip-path="url(#p6c31c5698b)" style="fill: #1f77b4"/>
   </g>
   <g id="patch_19">
    <path d="M 611.388026 243.630198 
L 620.534578 243.630198 
L 620.534578 202.596958 
L 611.388026 202.596958 
z
" clip-path="url(#p6c31c5698b)" style="fill: #1f77b4"/>
   </g>
   <g id="patch_20">
    <path d="M 645.687597 243.630198 
L 654.834149 243.630198 
L 654.834149 131.89353 
L 645.687597 131.89353 
z
" clip-path="url(#p6c31c5698b)" style="fill: #1f77b4"/>
   </g>
   <g id="patch_21">
    <path d="M 679.987167 243.630198 
L 689.13372 243.630198 
L 689.13372 209.541045 
L 679.987167 209.541045 
z
" clip-path="url(#p6c31c5698b)" style="fill: #1f77b4"/>
   </g>
   <g id="patch_22">
    <path d="M 714.286738 243.630198 
L 723.43329 243.630198 
L 723.43329 132.52481 
L 714.286738 132.52481 
z
" clip-path="url(#p6c31c5698b)" style="fill: #1f77b4"/>
   </g>
   <g id="patch_23">
    <path d="M 748.586309 243.630198 
L 757.732861 243.630198 
L 757.732861 210.172326 
L 748.586309 210.172326 
z
" clip-path="url(#p6c31c5698b)" style="fill: #1f77b4"/>
   </g>
   <g id="patch_24">
    <path d="M 782.88588 243.630198 
L 792.032432 243.630198 
L 792.032432 185.552382 
L 782.88588 185.552382 
z
" clip-path="url(#p6c31c5698b)" style="fill: #1f77b4"/>
   </g>
   <g id="patch_25">
    <path d="M 817.185451 243.630198 
L 826.332003 243.630198 
L 826.332003 210.172326 
L 817.185451 210.172326 
z
" clip-path="url(#p6c31c5698b)" style="fill: #1f77b4"/>
   </g>
   <g id="patch_26">
    <path d="M 71.741445 243.630198 
L 80.887997 243.630198 
L 80.887997 59.92754 
L 71.741445 59.92754 
z
" clip-path="url(#p6c31c5698b)" style="fill: #ff7f0e"/>
   </g>
   <g id="patch_27">
    <path d="M 106.041016 243.630198 
L 115.187568 243.630198 
L 115.187568 181.133418 
L 106.041016 181.133418 
z
" clip-path="url(#p6c31c5698b)" style="fill: #ff7f0e"/>
   </g>
   <g id="patch_28">
    <path d="M 140.340587 243.630198 
L 149.487139 243.630198 
L 149.487139 152.72579 
L 140.340587 152.72579 
z
" clip-path="url(#p6c31c5698b)" style="fill: #ff7f0e"/>
   </g>
   <g id="patch_29">
    <path d="M 174.640157 243.630198 
L 183.78671 243.630198 
L 183.78671 234.160989 
L 174.640157 234.160989 
z
" clip-path="url(#p6c31c5698b)" style="fill: #ff7f0e"/>
   </g>
   <g id="patch_30">
    <path d="M 208.939728 243.630198 
L 218.08628 243.630198 
L 218.08628 188.708785 
L 208.939728 188.708785 
z
" clip-path="url(#p6c31c5698b)" style="fill: #ff7f0e"/>
   </g>
   <g id="patch_31">
    <path d="M 243.239299 243.630198 
L 252.385851 243.630198 
L 252.385851 158.407316 
L 243.239299 158.407316 
z
" clip-path="url(#p6c31c5698b)" style="fill: #ff7f0e"/>
   </g>
   <g id="patch_32">
    <path d="M 277.53887 243.630198 
L 286.685422 243.630198 
L 286.685422 205.753362 
L 277.53887 205.753362 
z
" clip-path="url(#p6c31c5698b)" style="fill: #ff7f0e"/>
   </g>
   <g id="patch_33">
    <path d="M 311.838441 243.630198 
L 320.984993 243.630198 
L 320.984993 215.222571 
L 311.838441 215.222571 
z
" clip-path="url(#p6c31c5698b)" style="fill: #ff7f0e"/>
   </g>
   <g id="patch_34">
    <path d="M 346.138011 243.630198 
L 355.284564 243.630198 
L 355.284564 198.177994 
L 346.138011 198.177994 
z
" clip-path="url(#p6c31c5698b)" style="fill: #ff7f0e"/>
   </g>
   <g id="patch_35">
    <path d="M 380.437582 243.630198 
L 389.584134 243.630198 
L 389.584134 114.848953 
L 380.437582 114.848953 
z
" clip-path="url(#p6c31c5698b)" style="fill: #ff7f0e"/>
   </g>
   <g id="patch_36">
    <path d="M 414.737153 243.630198 
L 423.883705 243.630198 
L 423.883705 181.133418 
L 414.737153 181.133418 
z
" clip-path="url(#p6c31c5698b)" style="fill: #ff7f0e"/>
   </g>
   <g id="patch_37">
    <path d="M 449.036724 243.630198 
L 458.183276 243.630198 
L 458.183276 205.753362 
L 449.036724 205.753362 
z
" clip-path="url(#p6c31c5698b)" style="fill: #ff7f0e"/>
   </g>
   <g id="patch_38">
    <path d="M 483.336295 243.630198 
L 492.482847 243.630198 
L 492.482847 39.09528 
L 483.336295 39.09528 
z
" clip-path="url(#p6c31c5698b)" style="fill: #ff7f0e"/>
   </g>
   <g id="patch_39">
    <path d="M 517.635866 243.630198 
L 526.782418 243.630198 
L 526.782418 209.541045 
L 517.635866 209.541045 
z
" clip-path="url(#p6c31c5698b)" style="fill: #ff7f0e"/>
   </g>
   <g id="patch_40">
    <path d="M 551.935436 243.630198 
L 561.081989 243.630198 
L 561.081989 207.647203 
L 551.935436 207.647203 
z
" clip-path="url(#p6c31c5698b)" style="fill: #ff7f0e"/>
   </g>
   <g id="patch_41">
    <path d="M 586.235007 243.630198 
L 595.381559 243.630198 
L 595.381559 222.797938 
L 586.235007 222.797938 
z
" clip-path="url(#p6c31c5698b)" style="fill: #ff7f0e"/>
   </g>
   <g id="patch_42">
    <path d="M 620.534578 243.630198 
L 629.68113 243.630198 
L 629.68113 203.85952 
L 620.534578 203.85952 
z
" clip-path="url(#p6c31c5698b)" style="fill: #ff7f0e"/>
   </g>
   <g id="patch_43">
    <path d="M 654.834149 243.630198 
L 663.980701 243.630198 
L 663.980701 131.89353 
L 654.834149 131.89353 
z
" clip-path="url(#p6c31c5698b)" style="fill: #ff7f0e"/>
   </g>
   <g id="patch_44">
    <path d="M 689.13372 243.630198 
L 698.280272 243.630198 
L 698.280272 209.541045 
L 689.13372 209.541045 
z
" clip-path="url(#p6c31c5698b)" style="fill: #ff7f0e"/>
   </g>
   <g id="patch_45">
    <path d="M 723.43329 243.630198 
L 732.579843 243.630198 
L 732.579843 133.787372 
L 723.43329 133.787372 
z
" clip-path="url(#p6c31c5698b)" style="fill: #ff7f0e"/>
   </g>
   <g id="patch_46">
    <path d="M 757.732861 243.630198 
L 766.879413 243.630198 
L 766.879413 209.541045 
L 757.732861 209.541045 
z
" clip-path="url(#p6c31c5698b)" style="fill: #ff7f0e"/>
   </g>
   <g id="patch_47">
    <path d="M 792.032432 243.630198 
L 801.178984 243.630198 
L 801.178984 184.921101 
L 792.032432 184.921101 
z
" clip-path="url(#p6c31c5698b)" style="fill: #ff7f0e"/>
   </g>
   <g id="patch_48">
    <path d="M 826.332003 243.630198 
L 835.478555 243.630198 
L 835.478555 209.541045 
L 826.332003 209.541045 
z
" clip-path="url(#p6c31c5698b)" style="fill: #ff7f0e"/>
   </g>
   <g id="patch_49">
    <path d="M 80.887997 243.630198 
L 90.034549 243.630198 
L 90.034549 59.92754 
L 80.887997 59.92754 
z
" clip-path="url(#p6c31c5698b)" style="fill: #2ca02c"/>
   </g>
   <g id="patch_50">
    <path d="M 115.187568 243.630198 
L 124.33412 243.630198 
L 124.33412 181.133418 
L 115.187568 181.133418 
z
" clip-path="url(#p6c31c5698b)" style="fill: #2ca02c"/>
   </g>
   <g id="patch_51">
    <path d="M 149.487139 243.630198 
L 158.633691 243.630198 
L 158.633691 154.619632 
L 149.487139 154.619632 
z
" clip-path="url(#p6c31c5698b)" style="fill: #2ca02c"/>
   </g>
   <g id="patch_52">
    <path d="M 183.78671 243.630198 
L 192.933262 243.630198 
L 192.933262 232.267147 
L 183.78671 232.267147 
z
" clip-path="url(#p6c31c5698b)" style="fill: #2ca02c"/>
   </g>
   <g id="patch_53">
    <path d="M 218.08628 243.630198 
L 227.232833 243.630198 
L 227.232833 190.602627 
L 218.08628 190.602627 
z
" clip-path="url(#p6c31c5698b)" style="fill: #2ca02c"/>
   </g>
   <g id="patch_54">
    <path d="M 252.385851 243.630198 
L 261.532403 243.630198 
L 261.532403 158.407316 
L 252.385851 158.407316 
z
" clip-path="url(#p6c31c5698b)" style="fill: #2ca02c"/>
   </g>
   <g id="patch_55">
    <path d="M 286.685422 243.630198 
L 295.831974 243.630198 
L 295.831974 205.753362 
L 286.685422 205.753362 
z
" clip-path="url(#p6c31c5698b)" style="fill: #2ca02c"/>
   </g>
   <g id="patch_56">
    <path d="M 320.984993 243.630198 
L 330.131545 243.630198 
L 330.131545 217.116413 
L 320.984993 217.116413 
z
" clip-path="url(#p6c31c5698b)" style="fill: #2ca02c"/>
   </g>
   <g id="patch_57">
    <path d="M 355.284564 243.630198 
L 364.431116 243.630198 
L 364.431116 198.177994 
L 355.284564 198.177994 
z
" clip-path="url(#p6c31c5698b)" style="fill: #2ca02c"/>
   </g>
   <g id="patch_58">
    <path d="M 389.584134 243.630198 
L 398.730687 243.630198 
L 398.730687 112.955111 
L 389.584134 112.955111 
z
" clip-path="url(#p6c31c5698b)" style="fill: #2ca02c"/>
   </g>
   <g id="patch_59">
    <path d="M 423.883705 243.630198 
L 433.030258 243.630198 
L 433.030258 181.133418 
L 423.883705 181.133418 
z
" clip-path="url(#p6c31c5698b)" style="fill: #2ca02c"/>
   </g>
   <g id="patch_60">
    <path d="M 458.183276 243.630198 
L 467.329828 243.630198 
L 467.329828 203.85952 
L 458.183276 203.85952 
z
" clip-path="url(#p6c31c5698b)" style="fill: #2ca02c"/>
   </g>
   <g id="patch_61">
    <path d="M 492.482847 243.630198 
L 501.629399 243.630198 
L 501.629399 37.201438 
L 492.482847 37.201438 
z
" clip-path="url(#p6c31c5698b)" style="fill: #2ca02c"/>
   </g>
   <g id="patch_62">
    <path d="M 526.782418 243.630198 
L 535.92897 243.630198 
L 535.92897 211.434887 
L 526.782418 211.434887 
z
" clip-path="url(#p6c31c5698b)" style="fill: #2ca02c"/>
   </g>
   <g id="patch_63">
    <path d="M 561.081989 243.630198 
L 570.228541 243.630198 
L 570.228541 209.541045 
L 561.081989 209.541045 
z
" clip-path="url(#p6c31c5698b)" style="fill: #2ca02c"/>
   </g>
   <g id="patch_64">
    <path d="M 595.381559 243.630198 
L 604.528112 243.630198 
L 604.528112 222.797938 
L 595.381559 222.797938 
z
" clip-path="url(#p6c31c5698b)" style="fill: #2ca02c"/>
   </g>
   <g id="patch_65">
    <path d="M 629.68113 243.630198 
L 638.827682 243.630198 
L 638.827682 201.965678 
L 629.68113 201.965678 
z
" clip-path="url(#p6c31c5698b)" style="fill: #2ca02c"/>
   </g>
   <g id="patch_66">
    <path d="M 663.980701 243.630198 
L 673.127253 243.630198 
L 673.127253 131.89353 
L 663.980701 131.89353 
z
" clip-path="url(#p6c31c5698b)" style="fill: #2ca02c"/>
   </g>
   <g id="patch_67">
    <path d="M 698.280272 243.630198 
L 707.426824 243.630198 
L 707.426824 209.541045 
L 698.280272 209.541045 
z
" clip-path="url(#p6c31c5698b)" style="fill: #2ca02c"/>
   </g>
   <g id="patch_68">
    <path d="M 732.579843 243.630198 
L 741.726395 243.630198 
L 741.726395 131.89353 
L 732.579843 131.89353 
z
" clip-path="url(#p6c31c5698b)" style="fill: #2ca02c"/>
   </g>
   <g id="patch_69">
    <path d="M 766.879413 243.630198 
L 776.025966 243.630198 
L 776.025966 211.434887 
L 766.879413 211.434887 
z
" clip-path="url(#p6c31c5698b)" style="fill: #2ca02c"/>
   </g>
   <g id="patch_70">
    <path d="M 801.178984 243.630198 
L 810.325536 243.630198 
L 810.325536 184.921101 
L 801.178984 184.921101 
z
" clip-path="url(#p6c31c5698b)" style="fill: #2ca02c"/>
   </g>
   <g id="patch_71">
    <path d="M 835.478555 243.630198 
L 844.625107 243.630198 
L 844.625107 209.541045 
L 835.478555 209.541045 
z
" clip-path="url(#p6c31c5698b)" style="fill: #2ca02c"/>
   </g>
   <g id="matplotlib.axis_1">
    <g id="xtick_1">
     <g id="line2d_1">
      <defs>
       <path id="mee822f2872" d="M 0 0 
L 0 3.5 
" style="stroke: #000000; stroke-width: 0.8"/>
      </defs>
      <g>
       <use xlink:href="#mee822f2872" x="76.314721" y="243.630198" style="stroke: #000000; stroke-width: 0.8"/>
      </g>
     </g>
     <g id="text_1">
      <!-- Non-ship (0) -->
      <g transform="translate(31.312899 299.534366) rotate(-45) scale(0.1 -0.1)">
       <defs>
        <path id="DejaVuSans-4e" d="M 628 4666 
L 1478 4666 
L 3547 763 
L 3547 4666 
L 4159 4666 
L 4159 0 
L 3309 0 
L 1241 3903 
L 1241 0 
L 628 0 
L 628 4666 
z
" transform="scale(0.015625)"/>
        <path id="DejaVuSans-6f" d="M 1959 3097 
Q 1497 3097 1228 2736 
Q 959 2375 959 1747 
Q 959 1119 1226 758 
Q 1494 397 1959 397 
Q 2419 397 2687 759 
Q 2956 1122 2956 1747 
Q 2956 2369 2687 2733 
Q 2419 3097 1959 3097 
z
M 1959 3584 
Q 2709 3584 3137 3096 
Q 3566 2609 3566 1747 
Q 3566 888 3137 398 
Q 2709 -91 1959 -91 
Q 1206 -91 779 398 
Q 353 888 353 1747 
Q 353 2609 779 3096 
Q 1206 3584 1959 3584 
z
" transform="scale(0.015625)"/>
        <path id="DejaVuSans-6e" d="M 3513 2113 
L 3513 0 
L 2938 0 
L 2938 2094 
Q 2938 2591 2744 2837 
Q 2550 3084 2163 3084 
Q 1697 3084 1428 2787 
Q 1159 2491 1159 1978 
L 1159 0 
L 581 0 
L 581 3500 
L 1159 3500 
L 1159 2956 
Q 1366 3272 1645 3428 
Q 1925 3584 2291 3584 
Q 2894 3584 3203 3211 
Q 3513 2838 3513 2113 
z
" transform="scale(0.015625)"/>
        <path id="DejaVuSans-2d" d="M 313 2009 
L 1997 2009 
L 1997 1497 
L 313 1497 
L 313 2009 
z
" transform="scale(0.015625)"/>
        <path id="DejaVuSans-73" d="M 2834 3397 
L 2834 2853 
Q 2591 2978 2328 3040 
Q 2066 3103 1784 3103 
Q 1356 3103 1142 2972 
Q 928 2841 928 2578 
Q 928 2378 1081 2264 
Q 1234 2150 1697 2047 
L 1894 2003 
Q 2506 1872 2764 1633 
Q 3022 1394 3022 966 
Q 3022 478 2636 193 
Q 2250 -91 1575 -91 
Q 1294 -91 989 -36 
Q 684 19 347 128 
L 347 722 
Q 666 556 975 473 
Q 1284 391 1588 391 
Q 1994 391 2212 530 
Q 2431 669 2431 922 
Q 2431 1156 2273 1281 
Q 2116 1406 1581 1522 
L 1381 1569 
Q 847 1681 609 1914 
Q 372 2147 372 2553 
Q 372 3047 722 3315 
Q 1072 3584 1716 3584 
Q 2034 3584 2315 3537 
Q 2597 3491 2834 3397 
z
" transform="scale(0.015625)"/>
        <path id="DejaVuSans-68" d="M 3513 2113 
L 3513 0 
L 2938 0 
L 2938 2094 
Q 2938 2591 2744 2837 
Q 2550 3084 2163 3084 
Q 1697 3084 1428 2787 
Q 1159 2491 1159 1978 
L 1159 0 
L 581 0 
L 581 4863 
L 1159 4863 
L 1159 2956 
Q 1366 3272 1645 3428 
Q 1925 3584 2291 3584 
Q 2894 3584 3203 3211 
Q 3513 2838 3513 2113 
z
" transform="scale(0.015625)"/>
        <path id="DejaVuSans-69" d="M 603 3500 
L 1178 3500 
L 1178 0 
L 603 0 
L 603 3500 
z
M 603 4863 
L 1178 4863 
L 1178 4134 
L 603 4134 
L 603 4863 
z
" transform="scale(0.015625)"/>
        <path id="DejaVuSans-70" d="M 1159 525 
L 1159 -1331 
L 581 -1331 
L 581 3500 
L 1159 3500 
L 1159 2969 
Q 1341 3281 1617 3432 
Q 1894 3584 2278 3584 
Q 2916 3584 3314 3078 
Q 3713 2572 3713 1747 
Q 3713 922 3314 415 
Q 2916 -91 2278 -91 
Q 1894 -91 1617 61 
Q 1341 213 1159 525 
z
M 3116 1747 
Q 3116 2381 2855 2742 
Q 2594 3103 2138 3103 
Q 1681 3103 1420 2742 
Q 1159 2381 1159 1747 
Q 1159 1113 1420 752 
Q 1681 391 2138 391 
Q 2594 391 2855 752 
Q 3116 1113 3116 1747 
z
" transform="scale(0.015625)"/>
        <path id="DejaVuSans-20" transform="scale(0.015625)"/>
        <path id="DejaVuSans-28" d="M 1984 4856 
Q 1566 4138 1362 3434 
Q 1159 2731 1159 2009 
Q 1159 1288 1364 580 
Q 1569 -128 1984 -844 
L 1484 -844 
Q 1016 -109 783 600 
Q 550 1309 550 2009 
Q 550 2706 781 3412 
Q 1013 4119 1484 4856 
L 1984 4856 
z
" transform="scale(0.015625)"/>
        <path id="DejaVuSans-30" d="M 2034 4250 
Q 1547 4250 1301 3770 
Q 1056 3291 1056 2328 
Q 1056 1369 1301 889 
Q 1547 409 2034 409 
Q 2525 409 2770 889 
Q 3016 1369 3016 2328 
Q 3016 3291 2770 3770 
Q 2525 4250 2034 4250 
z
M 2034 4750 
Q 2819 4750 3233 4129 
Q 3647 3509 3647 2328 
Q 3647 1150 3233 529 
Q 2819 -91 2034 -91 
Q 1250 -91 836 529 
Q 422 1150 422 2328 
Q 422 3509 836 4129 
Q 1250 4750 2034 4750 
z
" transform="scale(0.015625)"/>
        <path id="DejaVuSans-29" d="M 513 4856 
L 1013 4856 
Q 1481 4119 1714 3412 
Q 1947 2706 1947 2009 
Q 1947 1309 1714 600 
Q 1481 -109 1013 -844 
L 513 -844 
Q 928 -128 1133 580 
Q 1338 1288 1338 2009 
Q 1338 2731 1133 3434 
Q 928 4138 513 4856 
z
" transform="scale(0.015625)"/>
       </defs>
       <use xlink:href="#DejaVuSans-4e"/>
       <use xlink:href="#DejaVuSans-6f" x="74.804688"/>
       <use xlink:href="#DejaVuSans-6e" x="135.986328"/>
       <use xlink:href="#DejaVuSans-2d" x="199.365234"/>
       <use xlink:href="#DejaVuSans-73" x="235.449219"/>
       <use xlink:href="#DejaVuSans-68" x="287.548828"/>
       <use xlink:href="#DejaVuSans-69" x="350.927734"/>
       <use xlink:href="#DejaVuSans-70" x="378.710938"/>
       <use xlink:href="#DejaVuSans-20" x="442.1875"/>
       <use xlink:href="#DejaVuSans-28" x="473.974609"/>
       <use xlink:href="#DejaVuSans-30" x="512.988281"/>
       <use xlink:href="#DejaVuSans-29" x="576.611328"/>
      </g>
     </g>
    </g>
    <g id="xtick_2">
     <g id="line2d_2">
      <g>
       <use xlink:href="#mee822f2872" x="110.614292" y="243.630198" style="stroke: #000000; stroke-width: 0.8"/>
      </g>
     </g>
     <g id="text_2">
      <!-- Aircraft carrier (1) -->
      <g transform="translate(45.684212 319.462624) rotate(-45) scale(0.1 -0.1)">
       <defs>
        <path id="DejaVuSans-41" d="M 2188 4044 
L 1331 1722 
L 3047 1722 
L 2188 4044 
z
M 1831 4666 
L 2547 4666 
L 4325 0 
L 3669 0 
L 3244 1197 
L 1141 1197 
L 716 0 
L 50 0 
L 1831 4666 
z
" transform="scale(0.015625)"/>
        <path id="DejaVuSans-72" d="M 2631 2963 
Q 2534 3019 2420 3045 
Q 2306 3072 2169 3072 
Q 1681 3072 1420 2755 
Q 1159 2438 1159 1844 
L 1159 0 
L 581 0 
L 581 3500 
L 1159 3500 
L 1159 2956 
Q 1341 3275 1631 3429 
Q 1922 3584 2338 3584 
Q 2397 3584 2469 3576 
Q 2541 3569 2628 3553 
L 2631 2963 
z
" transform="scale(0.015625)"/>
        <path id="DejaVuSans-63" d="M 3122 3366 
L 3122 2828 
Q 2878 2963 2633 3030 
Q 2388 3097 2138 3097 
Q 1578 3097 1268 2742 
Q 959 2388 959 1747 
Q 959 1106 1268 751 
Q 1578 397 2138 397 
Q 2388 397 2633 464 
Q 2878 531 3122 666 
L 3122 134 
Q 2881 22 2623 -34 
Q 2366 -91 2075 -91 
Q 1284 -91 818 406 
Q 353 903 353 1747 
Q 353 2603 823 3093 
Q 1294 3584 2113 3584 
Q 2378 3584 2631 3529 
Q 2884 3475 3122 3366 
z
" transform="scale(0.015625)"/>
        <path id="DejaVuSans-61" d="M 2194 1759 
Q 1497 1759 1228 1600 
Q 959 1441 959 1056 
Q 959 750 1161 570 
Q 1363 391 1709 391 
Q 2188 391 2477 730 
Q 2766 1069 2766 1631 
L 2766 1759 
L 2194 1759 
z
M 3341 1997 
L 3341 0 
L 2766 0 
L 2766 531 
Q 2569 213 2275 61 
Q 1981 -91 1556 -91 
Q 1019 -91 701 211 
Q 384 513 384 1019 
Q 384 1609 779 1909 
Q 1175 2209 1959 2209 
L 2766 2209 
L 2766 2266 
Q 2766 2663 2505 2880 
Q 2244 3097 1772 3097 
Q 1472 3097 1187 3025 
Q 903 2953 641 2809 
L 641 3341 
Q 956 3463 1253 3523 
Q 1550 3584 1831 3584 
Q 2591 3584 2966 3190 
Q 3341 2797 3341 1997 
z
" transform="scale(0.015625)"/>
        <path id="DejaVuSans-66" d="M 2375 4863 
L 2375 4384 
L 1825 4384 
Q 1516 4384 1395 4259 
Q 1275 4134 1275 3809 
L 1275 3500 
L 2222 3500 
L 2222 3053 
L 1275 3053 
L 1275 0 
L 697 0 
L 697 3053 
L 147 3053 
L 147 3500 
L 697 3500 
L 697 3744 
Q 697 4328 969 4595 
Q 1241 4863 1831 4863 
L 2375 4863 
z
" transform="scale(0.015625)"/>
        <path id="DejaVuSans-74" d="M 1172 4494 
L 1172 3500 
L 2356 3500 
L 2356 3053 
L 1172 3053 
L 1172 1153 
Q 1172 725 1289 603 
Q 1406 481 1766 481 
L 2356 481 
L 2356 0 
L 1766 0 
Q 1100 0 847 248 
Q 594 497 594 1153 
L 594 3053 
L 172 3053 
L 172 3500 
L 594 3500 
L 594 4494 
L 1172 4494 
z
" transform="scale(0.015625)"/>
        <path id="DejaVuSans-65" d="M 3597 1894 
L 3597 1613 
L 953 1613 
Q 991 1019 1311 708 
Q 1631 397 2203 397 
Q 2534 397 2845 478 
Q 3156 559 3463 722 
L 3463 178 
Q 3153 47 2828 -22 
Q 2503 -91 2169 -91 
Q 1331 -91 842 396 
Q 353 884 353 1716 
Q 353 2575 817 3079 
Q 1281 3584 2069 3584 
Q 2775 3584 3186 3129 
Q 3597 2675 3597 1894 
z
M 3022 2063 
Q 3016 2534 2758 2815 
Q 2500 3097 2075 3097 
Q 1594 3097 1305 2825 
Q 1016 2553 972 2059 
L 3022 2063 
z
" transform="scale(0.015625)"/>
        <path id="DejaVuSans-31" d="M 794 531 
L 1825 531 
L 1825 4091 
L 703 3866 
L 703 4441 
L 1819 4666 
L 2450 4666 
L 2450 531 
L 3481 531 
L 3481 0 
L 794 0 
L 794 531 
z
" transform="scale(0.015625)"/>
       </defs>
       <use xlink:href="#DejaVuSans-41"/>
       <use xlink:href="#DejaVuSans-69" x="68.408203"/>
       <use xlink:href="#DejaVuSans-72" x="96.191406"/>
       <use xlink:href="#DejaVuSans-63" x="135.054688"/>
       <use xlink:href="#DejaVuSans-72" x="190.035156"/>
       <use xlink:href="#DejaVuSans-61" x="231.148438"/>
       <use xlink:href="#DejaVuSans-66" x="292.427734"/>
       <use xlink:href="#DejaVuSans-74" x="325.882812"/>
       <use xlink:href="#DejaVuSans-20" x="365.091797"/>
       <use xlink:href="#DejaVuSans-63" x="396.878906"/>
       <use xlink:href="#DejaVuSans-61" x="451.859375"/>
       <use xlink:href="#DejaVuSans-72" x="513.138672"/>
       <use xlink:href="#DejaVuSans-72" x="552.501953"/>
       <use xlink:href="#DejaVuSans-69" x="593.615234"/>
       <use xlink:href="#DejaVuSans-65" x="621.398438"/>
       <use xlink:href="#DejaVuSans-72" x="682.921875"/>
       <use xlink:href="#DejaVuSans-20" x="724.035156"/>
       <use xlink:href="#DejaVuSans-28" x="755.822266"/>
       <use xlink:href="#DejaVuSans-31" x="794.835938"/>
       <use xlink:href="#DejaVuSans-29" x="858.458984"/>
      </g>
     </g>
    </g>
    <g id="xtick_3">
     <g id="line2d_3">
      <g>
       <use xlink:href="#mee822f2872" x="144.913863" y="243.630198" style="stroke: #000000; stroke-width: 0.8"/>
      </g>
     </g>
     <g id="text_3">
      <!-- Submarine (2) -->
      <g transform="translate(92.795673 306.650733) rotate(-45) scale(0.1 -0.1)">
       <defs>
        <path id="DejaVuSans-53" d="M 3425 4513 
L 3425 3897 
Q 3066 4069 2747 4153 
Q 2428 4238 2131 4238 
Q 1616 4238 1336 4038 
Q 1056 3838 1056 3469 
Q 1056 3159 1242 3001 
Q 1428 2844 1947 2747 
L 2328 2669 
Q 3034 2534 3370 2195 
Q 3706 1856 3706 1288 
Q 3706 609 3251 259 
Q 2797 -91 1919 -91 
Q 1588 -91 1214 -16 
Q 841 59 441 206 
L 441 856 
Q 825 641 1194 531 
Q 1563 422 1919 422 
Q 2459 422 2753 634 
Q 3047 847 3047 1241 
Q 3047 1584 2836 1778 
Q 2625 1972 2144 2069 
L 1759 2144 
Q 1053 2284 737 2584 
Q 422 2884 422 3419 
Q 422 4038 858 4394 
Q 1294 4750 2059 4750 
Q 2388 4750 2728 4690 
Q 3069 4631 3425 4513 
z
" transform="scale(0.015625)"/>
        <path id="DejaVuSans-75" d="M 544 1381 
L 544 3500 
L 1119 3500 
L 1119 1403 
Q 1119 906 1312 657 
Q 1506 409 1894 409 
Q 2359 409 2629 706 
Q 2900 1003 2900 1516 
L 2900 3500 
L 3475 3500 
L 3475 0 
L 2900 0 
L 2900 538 
Q 2691 219 2414 64 
Q 2138 -91 1772 -91 
Q 1169 -91 856 284 
Q 544 659 544 1381 
z
M 1991 3584 
L 1991 3584 
z
" transform="scale(0.015625)"/>
        <path id="DejaVuSans-62" d="M 3116 1747 
Q 3116 2381 2855 2742 
Q 2594 3103 2138 3103 
Q 1681 3103 1420 2742 
Q 1159 2381 1159 1747 
Q 1159 1113 1420 752 
Q 1681 391 2138 391 
Q 2594 391 2855 752 
Q 3116 1113 3116 1747 
z
M 1159 2969 
Q 1341 3281 1617 3432 
Q 1894 3584 2278 3584 
Q 2916 3584 3314 3078 
Q 3713 2572 3713 1747 
Q 3713 922 3314 415 
Q 2916 -91 2278 -91 
Q 1894 -91 1617 61 
Q 1341 213 1159 525 
L 1159 0 
L 581 0 
L 581 4863 
L 1159 4863 
L 1159 2969 
z
" transform="scale(0.015625)"/>
        <path id="DejaVuSans-6d" d="M 3328 2828 
Q 3544 3216 3844 3400 
Q 4144 3584 4550 3584 
Q 5097 3584 5394 3201 
Q 5691 2819 5691 2113 
L 5691 0 
L 5113 0 
L 5113 2094 
Q 5113 2597 4934 2840 
Q 4756 3084 4391 3084 
Q 3944 3084 3684 2787 
Q 3425 2491 3425 1978 
L 3425 0 
L 2847 0 
L 2847 2094 
Q 2847 2600 2669 2842 
Q 2491 3084 2119 3084 
Q 1678 3084 1418 2786 
Q 1159 2488 1159 1978 
L 1159 0 
L 581 0 
L 581 3500 
L 1159 3500 
L 1159 2956 
Q 1356 3278 1631 3431 
Q 1906 3584 2284 3584 
Q 2666 3584 2933 3390 
Q 3200 3197 3328 2828 
z
" transform="scale(0.015625)"/>
        <path id="DejaVuSans-32" d="M 1228 531 
L 3431 531 
L 3431 0 
L 469 0 
L 469 531 
Q 828 903 1448 1529 
Q 2069 2156 2228 2338 
Q 2531 2678 2651 2914 
Q 2772 3150 2772 3378 
Q 2772 3750 2511 3984 
Q 2250 4219 1831 4219 
Q 1534 4219 1204 4116 
Q 875 4013 500 3803 
L 500 4441 
Q 881 4594 1212 4672 
Q 1544 4750 1819 4750 
Q 2544 4750 2975 4387 
Q 3406 4025 3406 3419 
Q 3406 3131 3298 2873 
Q 3191 2616 2906 2266 
Q 2828 2175 2409 1742 
Q 1991 1309 1228 531 
z
" transform="scale(0.015625)"/>
       </defs>
       <use xlink:href="#DejaVuSans-53"/>
       <use xlink:href="#DejaVuSans-75" x="63.476562"/>
       <use xlink:href="#DejaVuSans-62" x="126.855469"/>
       <use xlink:href="#DejaVuSans-6d" x="190.332031"/>
       <use xlink:href="#DejaVuSans-61" x="287.744141"/>
       <use xlink:href="#DejaVuSans-72" x="349.023438"/>
       <use xlink:href="#DejaVuSans-69" x="390.136719"/>
       <use xlink:href="#DejaVuSans-6e" x="417.919922"/>
       <use xlink:href="#DejaVuSans-65" x="481.298828"/>
       <use xlink:href="#DejaVuSans-20" x="542.822266"/>
       <use xlink:href="#DejaVuSans-28" x="574.609375"/>
       <use xlink:href="#DejaVuSans-32" x="613.623047"/>
       <use xlink:href="#DejaVuSans-29" x="677.246094"/>
      </g>
     </g>
    </g>
    <g id="xtick_4">
     <g id="line2d_4">
      <g>
       <use xlink:href="#mee822f2872" x="179.213433" y="243.630198" style="stroke: #000000; stroke-width: 0.8"/>
      </g>
     </g>
     <g id="text_4">
      <!-- Medical ship (3) -->
      <g transform="translate(121.522359 312.223618) rotate(-45) scale(0.1 -0.1)">
       <defs>
        <path id="DejaVuSans-4d" d="M 628 4666 
L 1569 4666 
L 2759 1491 
L 3956 4666 
L 4897 4666 
L 4897 0 
L 4281 0 
L 4281 4097 
L 3078 897 
L 2444 897 
L 1241 4097 
L 1241 0 
L 628 0 
L 628 4666 
z
" transform="scale(0.015625)"/>
        <path id="DejaVuSans-64" d="M 2906 2969 
L 2906 4863 
L 3481 4863 
L 3481 0 
L 2906 0 
L 2906 525 
Q 2725 213 2448 61 
Q 2172 -91 1784 -91 
Q 1150 -91 751 415 
Q 353 922 353 1747 
Q 353 2572 751 3078 
Q 1150 3584 1784 3584 
Q 2172 3584 2448 3432 
Q 2725 3281 2906 2969 
z
M 947 1747 
Q 947 1113 1208 752 
Q 1469 391 1925 391 
Q 2381 391 2643 752 
Q 2906 1113 2906 1747 
Q 2906 2381 2643 2742 
Q 2381 3103 1925 3103 
Q 1469 3103 1208 2742 
Q 947 2381 947 1747 
z
" transform="scale(0.015625)"/>
        <path id="DejaVuSans-6c" d="M 603 4863 
L 1178 4863 
L 1178 0 
L 603 0 
L 603 4863 
z
" transform="scale(0.015625)"/>
        <path id="DejaVuSans-33" d="M 2597 2516 
Q 3050 2419 3304 2112 
Q 3559 1806 3559 1356 
Q 3559 666 3084 287 
Q 2609 -91 1734 -91 
Q 1441 -91 1130 -33 
Q 819 25 488 141 
L 488 750 
Q 750 597 1062 519 
Q 1375 441 1716 441 
Q 2309 441 2620 675 
Q 2931 909 2931 1356 
Q 2931 1769 2642 2001 
Q 2353 2234 1838 2234 
L 1294 2234 
L 1294 2753 
L 1863 2753 
Q 2328 2753 2575 2939 
Q 2822 3125 2822 3475 
Q 2822 3834 2567 4026 
Q 2313 4219 1838 4219 
Q 1578 4219 1281 4162 
Q 984 4106 628 3988 
L 628 4550 
Q 988 4650 1302 4700 
Q 1616 4750 1894 4750 
Q 2613 4750 3031 4423 
Q 3450 4097 3450 3541 
Q 3450 3153 3228 2886 
Q 3006 2619 2597 2516 
z
" transform="scale(0.015625)"/>
       </defs>
       <use xlink:href="#DejaVuSans-4d"/>
       <use xlink:href="#DejaVuSans-65" x="86.279297"/>
       <use xlink:href="#DejaVuSans-64" x="147.802734"/>
       <use xlink:href="#DejaVuSans-69" x="211.279297"/>
       <use xlink:href="#DejaVuSans-63" x="239.0625"/>
       <use xlink:href="#DejaVuSans-61" x="294.042969"/>
       <use xlink:href="#DejaVuSans-6c" x="355.322266"/>
       <use xlink:href="#DejaVuSans-20" x="383.105469"/>
       <use xlink:href="#DejaVuSans-73" x="414.892578"/>
       <use xlink:href="#DejaVuSans-68" x="466.992188"/>
       <use xlink:href="#DejaVuSans-69" x="530.371094"/>
       <use xlink:href="#DejaVuSans-70" x="558.154297"/>
       <use xlink:href="#DejaVuSans-20" x="621.630859"/>
       <use xlink:href="#DejaVuSans-28" x="653.417969"/>
       <use xlink:href="#DejaVuSans-33" x="692.431641"/>
       <use xlink:href="#DejaVuSans-29" x="756.054688"/>
      </g>
     </g>
    </g>
    <g id="xtick_5">
     <g id="line2d_5">
      <g>
       <use xlink:href="#mee822f2872" x="213.513004" y="243.630198" style="stroke: #000000; stroke-width: 0.8"/>
      </g>
     </g>
     <g id="text_5">
      <!-- Combat boat (4) -->
      <g transform="translate(153.864128 314.18142) rotate(-45) scale(0.1 -0.1)">
       <defs>
        <path id="DejaVuSans-43" d="M 4122 4306 
L 4122 3641 
Q 3803 3938 3442 4084 
Q 3081 4231 2675 4231 
Q 1875 4231 1450 3742 
Q 1025 3253 1025 2328 
Q 1025 1406 1450 917 
Q 1875 428 2675 428 
Q 3081 428 3442 575 
Q 3803 722 4122 1019 
L 4122 359 
Q 3791 134 3420 21 
Q 3050 -91 2638 -91 
Q 1578 -91 968 557 
Q 359 1206 359 2328 
Q 359 3453 968 4101 
Q 1578 4750 2638 4750 
Q 3056 4750 3426 4639 
Q 3797 4528 4122 4306 
z
" transform="scale(0.015625)"/>
        <path id="DejaVuSans-34" d="M 2419 4116 
L 825 1625 
L 2419 1625 
L 2419 4116 
z
M 2253 4666 
L 3047 4666 
L 3047 1625 
L 3713 1625 
L 3713 1100 
L 3047 1100 
L 3047 0 
L 2419 0 
L 2419 1100 
L 313 1100 
L 313 1709 
L 2253 4666 
z
" transform="scale(0.015625)"/>
       </defs>
       <use xlink:href="#DejaVuSans-43"/>
       <use xlink:href="#DejaVuSans-6f" x="69.824219"/>
       <use xlink:href="#DejaVuSans-6d" x="131.005859"/>
       <use xlink:href="#DejaVuSans-62" x="228.417969"/>
       <use xlink:href="#DejaVuSans-61" x="291.894531"/>
       <use xlink:href="#DejaVuSans-74" x="353.173828"/>
       <use xlink:href="#DejaVuSans-20" x="392.382812"/>
       <use xlink:href="#DejaVuSans-62" x="424.169922"/>
       <use xlink:href="#DejaVuSans-6f" x="487.646484"/>
       <use xlink:href="#DejaVuSans-61" x="548.828125"/>
       <use xlink:href="#DejaVuSans-74" x="610.107422"/>
       <use xlink:href="#DejaVuSans-20" x="649.316406"/>
       <use xlink:href="#DejaVuSans-28" x="681.103516"/>
       <use xlink:href="#DejaVuSans-34" x="720.117188"/>
       <use xlink:href="#DejaVuSans-29" x="783.740234"/>
      </g>
     </g>
    </g>
    <g id="xtick_6">
     <g id="line2d_6">
      <g>
       <use xlink:href="#mee822f2872" x="247.812575" y="243.630198" style="stroke: #000000; stroke-width: 0.8"/>
      </g>
     </g>
     <g id="text_6">
      <!-- Auxiliary ship (5) -->
      <g transform="translate(186.390407 315.954711) rotate(-45) scale(0.1 -0.1)">
       <defs>
        <path id="DejaVuSans-78" d="M 3513 3500 
L 2247 1797 
L 3578 0 
L 2900 0 
L 1881 1375 
L 863 0 
L 184 0 
L 1544 1831 
L 300 3500 
L 978 3500 
L 1906 2253 
L 2834 3500 
L 3513 3500 
z
" transform="scale(0.015625)"/>
        <path id="DejaVuSans-79" d="M 2059 -325 
Q 1816 -950 1584 -1140 
Q 1353 -1331 966 -1331 
L 506 -1331 
L 506 -850 
L 844 -850 
Q 1081 -850 1212 -737 
Q 1344 -625 1503 -206 
L 1606 56 
L 191 3500 
L 800 3500 
L 1894 763 
L 2988 3500 
L 3597 3500 
L 2059 -325 
z
" transform="scale(0.015625)"/>
        <path id="DejaVuSans-35" d="M 691 4666 
L 3169 4666 
L 3169 4134 
L 1269 4134 
L 1269 2991 
Q 1406 3038 1543 3061 
Q 1681 3084 1819 3084 
Q 2600 3084 3056 2656 
Q 3513 2228 3513 1497 
Q 3513 744 3044 326 
Q 2575 -91 1722 -91 
Q 1428 -91 1123 -41 
Q 819 9 494 109 
L 494 744 
Q 775 591 1075 516 
Q 1375 441 1709 441 
Q 2250 441 2565 725 
Q 2881 1009 2881 1497 
Q 2881 1984 2565 2268 
Q 2250 2553 1709 2553 
Q 1456 2553 1204 2497 
Q 953 2441 691 2322 
L 691 4666 
z
" transform="scale(0.015625)"/>
       </defs>
       <use xlink:href="#DejaVuSans-41"/>
       <use xlink:href="#DejaVuSans-75" x="68.408203"/>
       <use xlink:href="#DejaVuSans-78" x="131.787109"/>
       <use xlink:href="#DejaVuSans-69" x="190.966797"/>
       <use xlink:href="#DejaVuSans-6c" x="218.75"/>
       <use xlink:href="#DejaVuSans-69" x="246.533203"/>
       <use xlink:href="#DejaVuSans-61" x="274.316406"/>
       <use xlink:href="#DejaVuSans-72" x="335.595703"/>
       <use xlink:href="#DejaVuSans-79" x="376.708984"/>
       <use xlink:href="#DejaVuSans-20" x="435.888672"/>
       <use xlink:href="#DejaVuSans-73" x="467.675781"/>
       <use xlink:href="#DejaVuSans-68" x="519.775391"/>
       <use xlink:href="#DejaVuSans-69" x="583.154297"/>
       <use xlink:href="#DejaVuSans-70" x="610.9375"/>
       <use xlink:href="#DejaVuSans-20" x="674.414062"/>
       <use xlink:href="#DejaVuSans-28" x="706.201172"/>
       <use xlink:href="#DejaVuSans-35" x="745.214844"/>
       <use xlink:href="#DejaVuSans-29" x="808.837891"/>
      </g>
     </g>
    </g>
    <g id="xtick_7">
     <g id="line2d_7">
      <g>
       <use xlink:href="#mee822f2872" x="282.112146" y="243.630198" style="stroke: #000000; stroke-width: 0.8"/>
      </g>
     </g>
     <g id="text_7">
      <!-- Container ship (6) -->
      <g transform="translate(216.95778 319.686909) rotate(-45) scale(0.1 -0.1)">
       <defs>
        <path id="DejaVuSans-36" d="M 2113 2584 
Q 1688 2584 1439 2293 
Q 1191 2003 1191 1497 
Q 1191 994 1439 701 
Q 1688 409 2113 409 
Q 2538 409 2786 701 
Q 3034 994 3034 1497 
Q 3034 2003 2786 2293 
Q 2538 2584 2113 2584 
z
M 3366 4563 
L 3366 3988 
Q 3128 4100 2886 4159 
Q 2644 4219 2406 4219 
Q 1781 4219 1451 3797 
Q 1122 3375 1075 2522 
Q 1259 2794 1537 2939 
Q 1816 3084 2150 3084 
Q 2853 3084 3261 2657 
Q 3669 2231 3669 1497 
Q 3669 778 3244 343 
Q 2819 -91 2113 -91 
Q 1303 -91 875 529 
Q 447 1150 447 2328 
Q 447 3434 972 4092 
Q 1497 4750 2381 4750 
Q 2619 4750 2861 4703 
Q 3103 4656 3366 4563 
z
" transform="scale(0.015625)"/>
       </defs>
       <use xlink:href="#DejaVuSans-43"/>
       <use xlink:href="#DejaVuSans-6f" x="69.824219"/>
       <use xlink:href="#DejaVuSans-6e" x="131.005859"/>
       <use xlink:href="#DejaVuSans-74" x="194.384766"/>
       <use xlink:href="#DejaVuSans-61" x="233.59375"/>
       <use xlink:href="#DejaVuSans-69" x="294.873047"/>
       <use xlink:href="#DejaVuSans-6e" x="322.65625"/>
       <use xlink:href="#DejaVuSans-65" x="386.035156"/>
       <use xlink:href="#DejaVuSans-72" x="447.558594"/>
       <use xlink:href="#DejaVuSans-20" x="488.671875"/>
       <use xlink:href="#DejaVuSans-73" x="520.458984"/>
       <use xlink:href="#DejaVuSans-68" x="572.558594"/>
       <use xlink:href="#DejaVuSans-69" x="635.9375"/>
       <use xlink:href="#DejaVuSans-70" x="663.720703"/>
       <use xlink:href="#DejaVuSans-20" x="727.197266"/>
       <use xlink:href="#DejaVuSans-28" x="758.984375"/>
       <use xlink:href="#DejaVuSans-36" x="797.998047"/>
       <use xlink:href="#DejaVuSans-29" x="861.621094"/>
      </g>
     </g>
    </g>
    <g id="xtick_8">
     <g id="line2d_8">
      <g>
       <use xlink:href="#mee822f2872" x="316.411717" y="243.630198" style="stroke: #000000; stroke-width: 0.8"/>
      </g>
     </g>
     <g id="text_8">
      <!-- Car carrier (7) -->
      <g transform="translate(265.118854 305.825407) rotate(-45) scale(0.1 -0.1)">
       <defs>
        <path id="DejaVuSans-37" d="M 525 4666 
L 3525 4666 
L 3525 4397 
L 1831 0 
L 1172 0 
L 2766 4134 
L 525 4134 
L 525 4666 
z
" transform="scale(0.015625)"/>
       </defs>
       <use xlink:href="#DejaVuSans-43"/>
       <use xlink:href="#DejaVuSans-61" x="69.824219"/>
       <use xlink:href="#DejaVuSans-72" x="131.103516"/>
       <use xlink:href="#DejaVuSans-20" x="172.216797"/>
       <use xlink:href="#DejaVuSans-63" x="204.003906"/>
       <use xlink:href="#DejaVuSans-61" x="258.984375"/>
       <use xlink:href="#DejaVuSans-72" x="320.263672"/>
       <use xlink:href="#DejaVuSans-72" x="359.626953"/>
       <use xlink:href="#DejaVuSans-69" x="400.740234"/>
       <use xlink:href="#DejaVuSans-65" x="428.523438"/>
       <use xlink:href="#DejaVuSans-72" x="490.046875"/>
       <use xlink:href="#DejaVuSans-20" x="531.160156"/>
       <use xlink:href="#DejaVuSans-28" x="562.947266"/>
       <use xlink:href="#DejaVuSans-37" x="601.960938"/>
       <use xlink:href="#DejaVuSans-29" x="665.583984"/>
      </g>
     </g>
    </g>
    <g id="xtick_9">
     <g id="line2d_9">
      <g>
       <use xlink:href="#mee822f2872" x="350.711288" y="243.630198" style="stroke: #000000; stroke-width: 0.8"/>
      </g>
     </g>
     <g id="text_9">
      <!-- Hovercraft (8) -->
      <g transform="translate(299.783026 305.460805) rotate(-45) scale(0.1 -0.1)">
       <defs>
        <path id="DejaVuSans-48" d="M 628 4666 
L 1259 4666 
L 1259 2753 
L 3553 2753 
L 3553 4666 
L 4184 4666 
L 4184 0 
L 3553 0 
L 3553 2222 
L 1259 2222 
L 1259 0 
L 628 0 
L 628 4666 
z
" transform="scale(0.015625)"/>
        <path id="DejaVuSans-76" d="M 191 3500 
L 800 3500 
L 1894 563 
L 2988 3500 
L 3597 3500 
L 2284 0 
L 1503 0 
L 191 3500 
z
" transform="scale(0.015625)"/>
        <path id="DejaVuSans-38" d="M 2034 2216 
Q 1584 2216 1326 1975 
Q 1069 1734 1069 1313 
Q 1069 891 1326 650 
Q 1584 409 2034 409 
Q 2484 409 2743 651 
Q 3003 894 3003 1313 
Q 3003 1734 2745 1975 
Q 2488 2216 2034 2216 
z
M 1403 2484 
Q 997 2584 770 2862 
Q 544 3141 544 3541 
Q 544 4100 942 4425 
Q 1341 4750 2034 4750 
Q 2731 4750 3128 4425 
Q 3525 4100 3525 3541 
Q 3525 3141 3298 2862 
Q 3072 2584 2669 2484 
Q 3125 2378 3379 2068 
Q 3634 1759 3634 1313 
Q 3634 634 3220 271 
Q 2806 -91 2034 -91 
Q 1263 -91 848 271 
Q 434 634 434 1313 
Q 434 1759 690 2068 
Q 947 2378 1403 2484 
z
M 1172 3481 
Q 1172 3119 1398 2916 
Q 1625 2713 2034 2713 
Q 2441 2713 2670 2916 
Q 2900 3119 2900 3481 
Q 2900 3844 2670 4047 
Q 2441 4250 2034 4250 
Q 1625 4250 1398 4047 
Q 1172 3844 1172 3481 
z
" transform="scale(0.015625)"/>
       </defs>
       <use xlink:href="#DejaVuSans-48"/>
       <use xlink:href="#DejaVuSans-6f" x="75.195312"/>
       <use xlink:href="#DejaVuSans-76" x="136.376953"/>
       <use xlink:href="#DejaVuSans-65" x="195.556641"/>
       <use xlink:href="#DejaVuSans-72" x="257.080078"/>
       <use xlink:href="#DejaVuSans-63" x="295.943359"/>
       <use xlink:href="#DejaVuSans-72" x="350.923828"/>
       <use xlink:href="#DejaVuSans-61" x="392.037109"/>
       <use xlink:href="#DejaVuSans-66" x="453.316406"/>
       <use xlink:href="#DejaVuSans-74" x="486.771484"/>
       <use xlink:href="#DejaVuSans-20" x="525.980469"/>
       <use xlink:href="#DejaVuSans-28" x="557.767578"/>
       <use xlink:href="#DejaVuSans-38" x="596.78125"/>
       <use xlink:href="#DejaVuSans-29" x="660.404297"/>
      </g>
     </g>
    </g>
    <g id="xtick_10">
     <g id="line2d_10">
      <g>
       <use xlink:href="#mee822f2872" x="385.010858" y="243.630198" style="stroke: #000000; stroke-width: 0.8"/>
      </g>
     </g>
     <g id="text_10">
      <!-- Bulk carrier (9) -->
      <g transform="translate(330.503974 309.039428) rotate(-45) scale(0.1 -0.1)">
       <defs>
        <path id="DejaVuSans-42" d="M 1259 2228 
L 1259 519 
L 2272 519 
Q 2781 519 3026 730 
Q 3272 941 3272 1375 
Q 3272 1813 3026 2020 
Q 2781 2228 2272 2228 
L 1259 2228 
z
M 1259 4147 
L 1259 2741 
L 2194 2741 
Q 2656 2741 2882 2914 
Q 3109 3088 3109 3444 
Q 3109 3797 2882 3972 
Q 2656 4147 2194 4147 
L 1259 4147 
z
M 628 4666 
L 2241 4666 
Q 2963 4666 3353 4366 
Q 3744 4066 3744 3513 
Q 3744 3084 3544 2831 
Q 3344 2578 2956 2516 
Q 3422 2416 3680 2098 
Q 3938 1781 3938 1306 
Q 3938 681 3513 340 
Q 3088 0 2303 0 
L 628 0 
L 628 4666 
z
" transform="scale(0.015625)"/>
        <path id="DejaVuSans-6b" d="M 581 4863 
L 1159 4863 
L 1159 1991 
L 2875 3500 
L 3609 3500 
L 1753 1863 
L 3688 0 
L 2938 0 
L 1159 1709 
L 1159 0 
L 581 0 
L 581 4863 
z
" transform="scale(0.015625)"/>
        <path id="DejaVuSans-39" d="M 703 97 
L 703 672 
Q 941 559 1184 500 
Q 1428 441 1663 441 
Q 2288 441 2617 861 
Q 2947 1281 2994 2138 
Q 2813 1869 2534 1725 
Q 2256 1581 1919 1581 
Q 1219 1581 811 2004 
Q 403 2428 403 3163 
Q 403 3881 828 4315 
Q 1253 4750 1959 4750 
Q 2769 4750 3195 4129 
Q 3622 3509 3622 2328 
Q 3622 1225 3098 567 
Q 2575 -91 1691 -91 
Q 1453 -91 1209 -44 
Q 966 3 703 97 
z
M 1959 2075 
Q 2384 2075 2632 2365 
Q 2881 2656 2881 3163 
Q 2881 3666 2632 3958 
Q 2384 4250 1959 4250 
Q 1534 4250 1286 3958 
Q 1038 3666 1038 3163 
Q 1038 2656 1286 2365 
Q 1534 2075 1959 2075 
z
" transform="scale(0.015625)"/>
       </defs>
       <use xlink:href="#DejaVuSans-42"/>
       <use xlink:href="#DejaVuSans-75" x="68.603516"/>
       <use xlink:href="#DejaVuSans-6c" x="131.982422"/>
       <use xlink:href="#DejaVuSans-6b" x="159.765625"/>
       <use xlink:href="#DejaVuSans-20" x="217.675781"/>
       <use xlink:href="#DejaVuSans-63" x="249.462891"/>
       <use xlink:href="#DejaVuSans-61" x="304.443359"/>
       <use xlink:href="#DejaVuSans-72" x="365.722656"/>
       <use xlink:href="#DejaVuSans-72" x="405.085938"/>
       <use xlink:href="#DejaVuSans-69" x="446.199219"/>
       <use xlink:href="#DejaVuSans-65" x="473.982422"/>
       <use xlink:href="#DejaVuSans-72" x="535.505859"/>
       <use xlink:href="#DejaVuSans-20" x="576.619141"/>
       <use xlink:href="#DejaVuSans-28" x="608.40625"/>
       <use xlink:href="#DejaVuSans-39" x="647.419922"/>
       <use xlink:href="#DejaVuSans-29" x="711.042969"/>
      </g>
     </g>
    </g>
    <g id="xtick_11">
     <g id="line2d_11">
      <g>
       <use xlink:href="#mee822f2872" x="419.310429" y="243.630198" style="stroke: #000000; stroke-width: 0.8"/>
      </g>
     </g>
     <g id="text_11">
      <!-- Oil tanker (10) -->
      <g transform="translate(366.651966 307.191007) rotate(-45) scale(0.1 -0.1)">
       <defs>
        <path id="DejaVuSans-4f" d="M 2522 4238 
Q 1834 4238 1429 3725 
Q 1025 3213 1025 2328 
Q 1025 1447 1429 934 
Q 1834 422 2522 422 
Q 3209 422 3611 934 
Q 4013 1447 4013 2328 
Q 4013 3213 3611 3725 
Q 3209 4238 2522 4238 
z
M 2522 4750 
Q 3503 4750 4090 4092 
Q 4678 3434 4678 2328 
Q 4678 1225 4090 567 
Q 3503 -91 2522 -91 
Q 1538 -91 948 565 
Q 359 1222 359 2328 
Q 359 3434 948 4092 
Q 1538 4750 2522 4750 
z
" transform="scale(0.015625)"/>
       </defs>
       <use xlink:href="#DejaVuSans-4f"/>
       <use xlink:href="#DejaVuSans-69" x="78.710938"/>
       <use xlink:href="#DejaVuSans-6c" x="106.494141"/>
       <use xlink:href="#DejaVuSans-20" x="134.277344"/>
       <use xlink:href="#DejaVuSans-74" x="166.064453"/>
       <use xlink:href="#DejaVuSans-61" x="205.273438"/>
       <use xlink:href="#DejaVuSans-6e" x="266.552734"/>
       <use xlink:href="#DejaVuSans-6b" x="329.931641"/>
       <use xlink:href="#DejaVuSans-65" x="384.216797"/>
       <use xlink:href="#DejaVuSans-72" x="445.740234"/>
       <use xlink:href="#DejaVuSans-20" x="486.853516"/>
       <use xlink:href="#DejaVuSans-28" x="518.640625"/>
       <use xlink:href="#DejaVuSans-31" x="557.654297"/>
       <use xlink:href="#DejaVuSans-30" x="621.277344"/>
       <use xlink:href="#DejaVuSans-29" x="684.900391"/>
      </g>
     </g>
    </g>
    <g id="xtick_12">
     <g id="line2d_12">
      <g>
       <use xlink:href="#mee822f2872" x="453.61" y="243.630198" style="stroke: #000000; stroke-width: 0.8"/>
      </g>
     </g>
     <g id="text_12">
      <!-- Fishing boat (11) -->
      <g transform="translate(392.589999 315.552544) rotate(-45) scale(0.1 -0.1)">
       <defs>
        <path id="DejaVuSans-46" d="M 628 4666 
L 3309 4666 
L 3309 4134 
L 1259 4134 
L 1259 2759 
L 3109 2759 
L 3109 2228 
L 1259 2228 
L 1259 0 
L 628 0 
L 628 4666 
z
" transform="scale(0.015625)"/>
        <path id="DejaVuSans-67" d="M 2906 1791 
Q 2906 2416 2648 2759 
Q 2391 3103 1925 3103 
Q 1463 3103 1205 2759 
Q 947 2416 947 1791 
Q 947 1169 1205 825 
Q 1463 481 1925 481 
Q 2391 481 2648 825 
Q 2906 1169 2906 1791 
z
M 3481 434 
Q 3481 -459 3084 -895 
Q 2688 -1331 1869 -1331 
Q 1566 -1331 1297 -1286 
Q 1028 -1241 775 -1147 
L 775 -588 
Q 1028 -725 1275 -790 
Q 1522 -856 1778 -856 
Q 2344 -856 2625 -561 
Q 2906 -266 2906 331 
L 2906 616 
Q 2728 306 2450 153 
Q 2172 0 1784 0 
Q 1141 0 747 490 
Q 353 981 353 1791 
Q 353 2603 747 3093 
Q 1141 3584 1784 3584 
Q 2172 3584 2450 3431 
Q 2728 3278 2906 2969 
L 2906 3500 
L 3481 3500 
L 3481 434 
z
" transform="scale(0.015625)"/>
       </defs>
       <use xlink:href="#DejaVuSans-46"/>
       <use xlink:href="#DejaVuSans-69" x="50.269531"/>
       <use xlink:href="#DejaVuSans-73" x="78.052734"/>
       <use xlink:href="#DejaVuSans-68" x="130.152344"/>
       <use xlink:href="#DejaVuSans-69" x="193.53125"/>
       <use xlink:href="#DejaVuSans-6e" x="221.314453"/>
       <use xlink:href="#DejaVuSans-67" x="284.693359"/>
       <use xlink:href="#DejaVuSans-20" x="348.169922"/>
       <use xlink:href="#DejaVuSans-62" x="379.957031"/>
       <use xlink:href="#DejaVuSans-6f" x="443.433594"/>
       <use xlink:href="#DejaVuSans-61" x="504.615234"/>
       <use xlink:href="#DejaVuSans-74" x="565.894531"/>
       <use xlink:href="#DejaVuSans-20" x="605.103516"/>
       <use xlink:href="#DejaVuSans-28" x="636.890625"/>
       <use xlink:href="#DejaVuSans-31" x="675.904297"/>
       <use xlink:href="#DejaVuSans-31" x="739.527344"/>
       <use xlink:href="#DejaVuSans-29" x="803.150391"/>
      </g>
     </g>
    </g>
    <g id="xtick_13">
     <g id="line2d_13">
      <g>
       <use xlink:href="#mee822f2872" x="487.909571" y="243.630198" style="stroke: #000000; stroke-width: 0.8"/>
      </g>
     </g>
     <g id="text_13">
      <!-- Destroyer (12) -->
      <g transform="translate(434.907498 307.534616) rotate(-45) scale(0.1 -0.1)">
       <defs>
        <path id="DejaVuSans-44" d="M 1259 4147 
L 1259 519 
L 2022 519 
Q 2988 519 3436 956 
Q 3884 1394 3884 2338 
Q 3884 3275 3436 3711 
Q 2988 4147 2022 4147 
L 1259 4147 
z
M 628 4666 
L 1925 4666 
Q 3281 4666 3915 4102 
Q 4550 3538 4550 2338 
Q 4550 1131 3912 565 
Q 3275 0 1925 0 
L 628 0 
L 628 4666 
z
" transform="scale(0.015625)"/>
       </defs>
       <use xlink:href="#DejaVuSans-44"/>
       <use xlink:href="#DejaVuSans-65" x="77.001953"/>
       <use xlink:href="#DejaVuSans-73" x="138.525391"/>
       <use xlink:href="#DejaVuSans-74" x="190.625"/>
       <use xlink:href="#DejaVuSans-72" x="229.833984"/>
       <use xlink:href="#DejaVuSans-6f" x="268.697266"/>
       <use xlink:href="#DejaVuSans-79" x="329.878906"/>
       <use xlink:href="#DejaVuSans-65" x="389.058594"/>
       <use xlink:href="#DejaVuSans-72" x="450.582031"/>
       <use xlink:href="#DejaVuSans-20" x="491.695312"/>
       <use xlink:href="#DejaVuSans-28" x="523.482422"/>
       <use xlink:href="#DejaVuSans-31" x="562.496094"/>
       <use xlink:href="#DejaVuSans-32" x="626.119141"/>
       <use xlink:href="#DejaVuSans-29" x="689.742188"/>
      </g>
     </g>
    </g>
    <g id="xtick_14">
     <g id="line2d_14">
      <g>
       <use xlink:href="#mee822f2872" x="522.209142" y="243.630198" style="stroke: #000000; stroke-width: 0.8"/>
      </g>
     </g>
     <g id="text_14">
      <!-- Passenger ship (13) -->
      <g transform="translate(450.885269 325.856416) rotate(-45) scale(0.1 -0.1)">
       <defs>
        <path id="DejaVuSans-50" d="M 1259 4147 
L 1259 2394 
L 2053 2394 
Q 2494 2394 2734 2622 
Q 2975 2850 2975 3272 
Q 2975 3691 2734 3919 
Q 2494 4147 2053 4147 
L 1259 4147 
z
M 628 4666 
L 2053 4666 
Q 2838 4666 3239 4311 
Q 3641 3956 3641 3272 
Q 3641 2581 3239 2228 
Q 2838 1875 2053 1875 
L 1259 1875 
L 1259 0 
L 628 0 
L 628 4666 
z
" transform="scale(0.015625)"/>
       </defs>
       <use xlink:href="#DejaVuSans-50"/>
       <use xlink:href="#DejaVuSans-61" x="55.802734"/>
       <use xlink:href="#DejaVuSans-73" x="117.082031"/>
       <use xlink:href="#DejaVuSans-73" x="169.181641"/>
       <use xlink:href="#DejaVuSans-65" x="221.28125"/>
       <use xlink:href="#DejaVuSans-6e" x="282.804688"/>
       <use xlink:href="#DejaVuSans-67" x="346.183594"/>
       <use xlink:href="#DejaVuSans-65" x="409.660156"/>
       <use xlink:href="#DejaVuSans-72" x="471.183594"/>
       <use xlink:href="#DejaVuSans-20" x="512.296875"/>
       <use xlink:href="#DejaVuSans-73" x="544.083984"/>
       <use xlink:href="#DejaVuSans-68" x="596.183594"/>
       <use xlink:href="#DejaVuSans-69" x="659.5625"/>
       <use xlink:href="#DejaVuSans-70" x="687.345703"/>
       <use xlink:href="#DejaVuSans-20" x="750.822266"/>
       <use xlink:href="#DejaVuSans-28" x="782.609375"/>
       <use xlink:href="#DejaVuSans-31" x="821.623047"/>
       <use xlink:href="#DejaVuSans-33" x="885.246094"/>
       <use xlink:href="#DejaVuSans-29" x="948.869141"/>
      </g>
     </g>
    </g>
    <g id="xtick_15">
     <g id="line2d_15">
      <g>
       <use xlink:href="#mee822f2872" x="556.508712" y="243.630198" style="stroke: #000000; stroke-width: 0.8"/>
      </g>
     </g>
     <g id="text_15">
      <!-- Liquefied gas ship (14) -->
      <g transform="translate(474.137402 336.903855) rotate(-45) scale(0.1 -0.1)">
       <defs>
        <path id="DejaVuSans-4c" d="M 628 4666 
L 1259 4666 
L 1259 531 
L 3531 531 
L 3531 0 
L 628 0 
L 628 4666 
z
" transform="scale(0.015625)"/>
        <path id="DejaVuSans-71" d="M 947 1747 
Q 947 1113 1208 752 
Q 1469 391 1925 391 
Q 2381 391 2643 752 
Q 2906 1113 2906 1747 
Q 2906 2381 2643 2742 
Q 2381 3103 1925 3103 
Q 1469 3103 1208 2742 
Q 947 2381 947 1747 
z
M 2906 525 
Q 2725 213 2448 61 
Q 2172 -91 1784 -91 
Q 1150 -91 751 415 
Q 353 922 353 1747 
Q 353 2572 751 3078 
Q 1150 3584 1784 3584 
Q 2172 3584 2448 3432 
Q 2725 3281 2906 2969 
L 2906 3500 
L 3481 3500 
L 3481 -1331 
L 2906 -1331 
L 2906 525 
z
" transform="scale(0.015625)"/>
       </defs>
       <use xlink:href="#DejaVuSans-4c"/>
       <use xlink:href="#DejaVuSans-69" x="55.712891"/>
       <use xlink:href="#DejaVuSans-71" x="83.496094"/>
       <use xlink:href="#DejaVuSans-75" x="146.972656"/>
       <use xlink:href="#DejaVuSans-65" x="210.351562"/>
       <use xlink:href="#DejaVuSans-66" x="271.875"/>
       <use xlink:href="#DejaVuSans-69" x="307.080078"/>
       <use xlink:href="#DejaVuSans-65" x="334.863281"/>
       <use xlink:href="#DejaVuSans-64" x="396.386719"/>
       <use xlink:href="#DejaVuSans-20" x="459.863281"/>
       <use xlink:href="#DejaVuSans-67" x="491.650391"/>
       <use xlink:href="#DejaVuSans-61" x="555.126953"/>
       <use xlink:href="#DejaVuSans-73" x="616.40625"/>
       <use xlink:href="#DejaVuSans-20" x="668.505859"/>
       <use xlink:href="#DejaVuSans-73" x="700.292969"/>
       <use xlink:href="#DejaVuSans-68" x="752.392578"/>
       <use xlink:href="#DejaVuSans-69" x="815.771484"/>
       <use xlink:href="#DejaVuSans-70" x="843.554688"/>
       <use xlink:href="#DejaVuSans-20" x="907.03125"/>
       <use xlink:href="#DejaVuSans-28" x="938.818359"/>
       <use xlink:href="#DejaVuSans-31" x="977.832031"/>
       <use xlink:href="#DejaVuSans-34" x="1041.455078"/>
       <use xlink:href="#DejaVuSans-29" x="1105.078125"/>
      </g>
     </g>
    </g>
    <g id="xtick_16">
     <g id="line2d_16">
      <g>
       <use xlink:href="#mee822f2872" x="590.808283" y="243.630198" style="stroke: #000000; stroke-width: 0.8"/>
      </g>
     </g>
     <g id="text_16">
      <!-- Barge (15) -->
      <g transform="translate(551.76715 293.573677) rotate(-45) scale(0.1 -0.1)">
       <use xlink:href="#DejaVuSans-42"/>
       <use xlink:href="#DejaVuSans-61" x="68.603516"/>
       <use xlink:href="#DejaVuSans-72" x="129.882812"/>
       <use xlink:href="#DejaVuSans-67" x="169.246094"/>
       <use xlink:href="#DejaVuSans-65" x="232.722656"/>
       <use xlink:href="#DejaVuSans-20" x="294.246094"/>
       <use xlink:href="#DejaVuSans-28" x="326.033203"/>
       <use xlink:href="#DejaVuSans-31" x="365.046875"/>
       <use xlink:href="#DejaVuSans-35" x="428.669922"/>
       <use xlink:href="#DejaVuSans-29" x="492.292969"/>
      </g>
     </g>
    </g>
    <g id="xtick_17">
     <g id="line2d_17">
      <g>
       <use xlink:href="#mee822f2872" x="625.107854" y="243.630198" style="stroke: #000000; stroke-width: 0.8"/>
      </g>
     </g>
     <g id="text_17">
      <!-- Landing craft (16) -->
      <g transform="translate(560.183298 319.4571) rotate(-45) scale(0.1 -0.1)">
       <use xlink:href="#DejaVuSans-4c"/>
       <use xlink:href="#DejaVuSans-61" x="55.712891"/>
       <use xlink:href="#DejaVuSans-6e" x="116.992188"/>
       <use xlink:href="#DejaVuSans-64" x="180.371094"/>
       <use xlink:href="#DejaVuSans-69" x="243.847656"/>
       <use xlink:href="#DejaVuSans-6e" x="271.630859"/>
       <use xlink:href="#DejaVuSans-67" x="335.009766"/>
       <use xlink:href="#DejaVuSans-20" x="398.486328"/>
       <use xlink:href="#DejaVuSans-63" x="430.273438"/>
       <use xlink:href="#DejaVuSans-72" x="485.253906"/>
       <use xlink:href="#DejaVuSans-61" x="526.367188"/>
       <use xlink:href="#DejaVuSans-66" x="587.646484"/>
       <use xlink:href="#DejaVuSans-74" x="621.101562"/>
       <use xlink:href="#DejaVuSans-20" x="660.310547"/>
       <use xlink:href="#DejaVuSans-28" x="692.097656"/>
       <use xlink:href="#DejaVuSans-31" x="731.111328"/>
       <use xlink:href="#DejaVuSans-36" x="794.734375"/>
       <use xlink:href="#DejaVuSans-29" x="858.357422"/>
      </g>
     </g>
    </g>
    <g id="xtick_18">
     <g id="line2d_18">
      <g>
       <use xlink:href="#mee822f2872" x="659.407425" y="243.630198" style="stroke: #000000; stroke-width: 0.8"/>
      </g>
     </g>
     <g id="text_18">
      <!-- Frigate (17) -->
      <g transform="translate(616.803136 297.136832) rotate(-45) scale(0.1 -0.1)">
       <use xlink:href="#DejaVuSans-46"/>
       <use xlink:href="#DejaVuSans-72" x="50.269531"/>
       <use xlink:href="#DejaVuSans-69" x="91.382812"/>
       <use xlink:href="#DejaVuSans-67" x="119.166016"/>
       <use xlink:href="#DejaVuSans-61" x="182.642578"/>
       <use xlink:href="#DejaVuSans-74" x="243.921875"/>
       <use xlink:href="#DejaVuSans-65" x="283.130859"/>
       <use xlink:href="#DejaVuSans-20" x="344.654297"/>
       <use xlink:href="#DejaVuSans-28" x="376.441406"/>
       <use xlink:href="#DejaVuSans-31" x="415.455078"/>
       <use xlink:href="#DejaVuSans-37" x="479.078125"/>
       <use xlink:href="#DejaVuSans-29" x="542.701172"/>
      </g>
     </g>
    </g>
    <g id="xtick_19">
     <g id="line2d_19">
      <g>
       <use xlink:href="#mee822f2872" x="693.706996" y="243.630198" style="stroke: #000000; stroke-width: 0.8"/>
      </g>
     </g>
     <g id="text_19">
      <!-- Amphibious transport dock (18) -->
      <g transform="translate(579.904788 368.334751) rotate(-45) scale(0.1 -0.1)">
       <use xlink:href="#DejaVuSans-41"/>
       <use xlink:href="#DejaVuSans-6d" x="68.408203"/>
       <use xlink:href="#DejaVuSans-70" x="165.820312"/>
       <use xlink:href="#DejaVuSans-68" x="229.296875"/>
       <use xlink:href="#DejaVuSans-69" x="292.675781"/>
       <use xlink:href="#DejaVuSans-62" x="320.458984"/>
       <use xlink:href="#DejaVuSans-69" x="383.935547"/>
       <use xlink:href="#DejaVuSans-6f" x="411.71875"/>
       <use xlink:href="#DejaVuSans-75" x="472.900391"/>
       <use xlink:href="#DejaVuSans-73" x="536.279297"/>
       <use xlink:href="#DejaVuSans-20" x="588.378906"/>
       <use xlink:href="#DejaVuSans-74" x="620.166016"/>
       <use xlink:href="#DejaVuSans-72" x="659.375"/>
       <use xlink:href="#DejaVuSans-61" x="700.488281"/>
       <use xlink:href="#DejaVuSans-6e" x="761.767578"/>
       <use xlink:href="#DejaVuSans-73" x="825.146484"/>
       <use xlink:href="#DejaVuSans-70" x="877.246094"/>
       <use xlink:href="#DejaVuSans-6f" x="940.722656"/>
       <use xlink:href="#DejaVuSans-72" x="1001.904297"/>
       <use xlink:href="#DejaVuSans-74" x="1043.017578"/>
       <use xlink:href="#DejaVuSans-20" x="1082.226562"/>
       <use xlink:href="#DejaVuSans-64" x="1114.013672"/>
       <use xlink:href="#DejaVuSans-6f" x="1177.490234"/>
       <use xlink:href="#DejaVuSans-63" x="1238.671875"/>
       <use xlink:href="#DejaVuSans-6b" x="1293.652344"/>
       <use xlink:href="#DejaVuSans-20" x="1351.5625"/>
       <use xlink:href="#DejaVuSans-28" x="1383.349609"/>
       <use xlink:href="#DejaVuSans-31" x="1422.363281"/>
       <use xlink:href="#DejaVuSans-38" x="1485.986328"/>
       <use xlink:href="#DejaVuSans-29" x="1549.609375"/>
      </g>
     </g>
    </g>
    <g id="xtick_20">
     <g id="line2d_20">
      <g>
       <use xlink:href="#mee822f2872" x="728.006567" y="243.630198" style="stroke: #000000; stroke-width: 0.8"/>
      </g>
     </g>
     <g id="text_20">
      <!-- Cruiser (19) -->
      <g transform="translate(684.541597 297.997514) rotate(-45) scale(0.1 -0.1)">
       <use xlink:href="#DejaVuSans-43"/>
       <use xlink:href="#DejaVuSans-72" x="69.824219"/>
       <use xlink:href="#DejaVuSans-75" x="110.9375"/>
       <use xlink:href="#DejaVuSans-69" x="174.316406"/>
       <use xlink:href="#DejaVuSans-73" x="202.099609"/>
       <use xlink:href="#DejaVuSans-65" x="254.199219"/>
       <use xlink:href="#DejaVuSans-72" x="315.722656"/>
       <use xlink:href="#DejaVuSans-20" x="356.835938"/>
       <use xlink:href="#DejaVuSans-28" x="388.623047"/>
       <use xlink:href="#DejaVuSans-31" x="427.636719"/>
       <use xlink:href="#DejaVuSans-39" x="491.259766"/>
       <use xlink:href="#DejaVuSans-29" x="554.882812"/>
      </g>
     </g>
    </g>
    <g id="xtick_21">
     <g id="line2d_21">
      <g>
       <use xlink:href="#mee822f2872" x="762.306137" y="243.630198" style="stroke: #000000; stroke-width: 0.8"/>
      </g>
     </g>
     <g id="text_21">
      <!-- Tarawa-class amphibious assault ship (20) -->
      <g transform="translate(611.415075 405.423607) rotate(-45) scale(0.1 -0.1)">
       <defs>
        <path id="DejaVuSans-54" d="M -19 4666 
L 3928 4666 
L 3928 4134 
L 2272 4134 
L 2272 0 
L 1638 0 
L 1638 4134 
L -19 4134 
L -19 4666 
z
" transform="scale(0.015625)"/>
        <path id="DejaVuSans-77" d="M 269 3500 
L 844 3500 
L 1563 769 
L 2278 3500 
L 2956 3500 
L 3675 769 
L 4391 3500 
L 4966 3500 
L 4050 0 
L 3372 0 
L 2619 2869 
L 1863 0 
L 1184 0 
L 269 3500 
z
" transform="scale(0.015625)"/>
       </defs>
       <use xlink:href="#DejaVuSans-54"/>
       <use xlink:href="#DejaVuSans-61" x="44.583984"/>
       <use xlink:href="#DejaVuSans-72" x="105.863281"/>
       <use xlink:href="#DejaVuSans-61" x="146.976562"/>
       <use xlink:href="#DejaVuSans-77" x="208.255859"/>
       <use xlink:href="#DejaVuSans-61" x="290.042969"/>
       <use xlink:href="#DejaVuSans-2d" x="351.322266"/>
       <use xlink:href="#DejaVuSans-63" x="387.40625"/>
       <use xlink:href="#DejaVuSans-6c" x="442.386719"/>
       <use xlink:href="#DejaVuSans-61" x="470.169922"/>
       <use xlink:href="#DejaVuSans-73" x="531.449219"/>
       <use xlink:href="#DejaVuSans-73" x="583.548828"/>
       <use xlink:href="#DejaVuSans-20" x="635.648438"/>
       <use xlink:href="#DejaVuSans-61" x="667.435547"/>
       <use xlink:href="#DejaVuSans-6d" x="728.714844"/>
       <use xlink:href="#DejaVuSans-70" x="826.126953"/>
       <use xlink:href="#DejaVuSans-68" x="889.603516"/>
       <use xlink:href="#DejaVuSans-69" x="952.982422"/>
       <use xlink:href="#DejaVuSans-62" x="980.765625"/>
       <use xlink:href="#DejaVuSans-69" x="1044.242188"/>
       <use xlink:href="#DejaVuSans-6f" x="1072.025391"/>
       <use xlink:href="#DejaVuSans-75" x="1133.207031"/>
       <use xlink:href="#DejaVuSans-73" x="1196.585938"/>
       <use xlink:href="#DejaVuSans-20" x="1248.685547"/>
       <use xlink:href="#DejaVuSans-61" x="1280.472656"/>
       <use xlink:href="#DejaVuSans-73" x="1341.751953"/>
       <use xlink:href="#DejaVuSans-73" x="1393.851562"/>
       <use xlink:href="#DejaVuSans-61" x="1445.951172"/>
       <use xlink:href="#DejaVuSans-75" x="1507.230469"/>
       <use xlink:href="#DejaVuSans-6c" x="1570.609375"/>
       <use xlink:href="#DejaVuSans-74" x="1598.392578"/>
       <use xlink:href="#DejaVuSans-20" x="1637.601562"/>
       <use xlink:href="#DejaVuSans-73" x="1669.388672"/>
       <use xlink:href="#DejaVuSans-68" x="1721.488281"/>
       <use xlink:href="#DejaVuSans-69" x="1784.867188"/>
       <use xlink:href="#DejaVuSans-70" x="1812.650391"/>
       <use xlink:href="#DejaVuSans-20" x="1876.126953"/>
       <use xlink:href="#DejaVuSans-28" x="1907.914062"/>
       <use xlink:href="#DejaVuSans-32" x="1946.927734"/>
       <use xlink:href="#DejaVuSans-30" x="2010.550781"/>
       <use xlink:href="#DejaVuSans-29" x="2074.173828"/>
      </g>
     </g>
    </g>
    <g id="xtick_22">
     <g id="line2d_22">
      <g>
       <use xlink:href="#mee822f2872" x="796.605708" y="243.630198" style="stroke: #000000; stroke-width: 0.8"/>
      </g>
     </g>
     <g id="text_22">
      <!-- Amphibious assault ship (21) -->
      <g transform="translate(692.40358 358.734672) rotate(-45) scale(0.1 -0.1)">
       <use xlink:href="#DejaVuSans-41"/>
       <use xlink:href="#DejaVuSans-6d" x="68.408203"/>
       <use xlink:href="#DejaVuSans-70" x="165.820312"/>
       <use xlink:href="#DejaVuSans-68" x="229.296875"/>
       <use xlink:href="#DejaVuSans-69" x="292.675781"/>
       <use xlink:href="#DejaVuSans-62" x="320.458984"/>
       <use xlink:href="#DejaVuSans-69" x="383.935547"/>
       <use xlink:href="#DejaVuSans-6f" x="411.71875"/>
       <use xlink:href="#DejaVuSans-75" x="472.900391"/>
       <use xlink:href="#DejaVuSans-73" x="536.279297"/>
       <use xlink:href="#DejaVuSans-20" x="588.378906"/>
       <use xlink:href="#DejaVuSans-61" x="620.166016"/>
       <use xlink:href="#DejaVuSans-73" x="681.445312"/>
       <use xlink:href="#DejaVuSans-73" x="733.544922"/>
       <use xlink:href="#DejaVuSans-61" x="785.644531"/>
       <use xlink:href="#DejaVuSans-75" x="846.923828"/>
       <use xlink:href="#DejaVuSans-6c" x="910.302734"/>
       <use xlink:href="#DejaVuSans-74" x="938.085938"/>
       <use xlink:href="#DejaVuSans-20" x="977.294922"/>
       <use xlink:href="#DejaVuSans-73" x="1009.082031"/>
       <use xlink:href="#DejaVuSans-68" x="1061.181641"/>
       <use xlink:href="#DejaVuSans-69" x="1124.560547"/>
       <use xlink:href="#DejaVuSans-70" x="1152.34375"/>
       <use xlink:href="#DejaVuSans-20" x="1215.820312"/>
       <use xlink:href="#DejaVuSans-28" x="1247.607422"/>
       <use xlink:href="#DejaVuSans-32" x="1286.621094"/>
       <use xlink:href="#DejaVuSans-31" x="1350.244141"/>
       <use xlink:href="#DejaVuSans-29" x="1413.867188"/>
      </g>
     </g>
    </g>
    <g id="xtick_23">
     <g id="line2d_23">
      <g>
       <use xlink:href="#mee822f2872" x="830.905279" y="243.630198" style="stroke: #000000; stroke-width: 0.8"/>
      </g>
     </g>
     <g id="text_23">
      <!-- Command ship (22) -->
      <g transform="translate(759.463187 325.974635) rotate(-45) scale(0.1 -0.1)">
       <use xlink:href="#DejaVuSans-43"/>
       <use xlink:href="#DejaVuSans-6f" x="69.824219"/>
       <use xlink:href="#DejaVuSans-6d" x="131.005859"/>
       <use xlink:href="#DejaVuSans-6d" x="228.417969"/>
       <use xlink:href="#DejaVuSans-61" x="325.830078"/>
       <use xlink:href="#DejaVuSans-6e" x="387.109375"/>
       <use xlink:href="#DejaVuSans-64" x="450.488281"/>
       <use xlink:href="#DejaVuSans-20" x="513.964844"/>
       <use xlink:href="#DejaVuSans-73" x="545.751953"/>
       <use xlink:href="#DejaVuSans-68" x="597.851562"/>
       <use xlink:href="#DejaVuSans-69" x="661.230469"/>
       <use xlink:href="#DejaVuSans-70" x="689.013672"/>
       <use xlink:href="#DejaVuSans-20" x="752.490234"/>
       <use xlink:href="#DejaVuSans-28" x="784.277344"/>
       <use xlink:href="#DejaVuSans-32" x="823.291016"/>
       <use xlink:href="#DejaVuSans-32" x="886.914062"/>
       <use xlink:href="#DejaVuSans-29" x="950.537109"/>
      </g>
     </g>
    </g>
    <g id="text_24">
     <!-- Class Name (Label Index) -->
     <g transform="translate(389.779531 418.492605) scale(0.1 -0.1)">
      <defs>
       <path id="DejaVuSans-49" d="M 628 4666 
L 1259 4666 
L 1259 0 
L 628 0 
L 628 4666 
z
" transform="scale(0.015625)"/>
      </defs>
      <use xlink:href="#DejaVuSans-43"/>
      <use xlink:href="#DejaVuSans-6c" x="69.824219"/>
      <use xlink:href="#DejaVuSans-61" x="97.607422"/>
      <use xlink:href="#DejaVuSans-73" x="158.886719"/>
      <use xlink:href="#DejaVuSans-73" x="210.986328"/>
      <use xlink:href="#DejaVuSans-20" x="263.085938"/>
      <use xlink:href="#DejaVuSans-4e" x="294.873047"/>
      <use xlink:href="#DejaVuSans-61" x="369.677734"/>
      <use xlink:href="#DejaVuSans-6d" x="430.957031"/>
      <use xlink:href="#DejaVuSans-65" x="528.369141"/>
      <use xlink:href="#DejaVuSans-20" x="589.892578"/>
      <use xlink:href="#DejaVuSans-28" x="621.679688"/>
      <use xlink:href="#DejaVuSans-4c" x="660.693359"/>
      <use xlink:href="#DejaVuSans-61" x="716.40625"/>
      <use xlink:href="#DejaVuSans-62" x="777.685547"/>
      <use xlink:href="#DejaVuSans-65" x="841.162109"/>
      <use xlink:href="#DejaVuSans-6c" x="902.685547"/>
      <use xlink:href="#DejaVuSans-20" x="930.46875"/>
      <use xlink:href="#DejaVuSans-49" x="962.255859"/>
      <use xlink:href="#DejaVuSans-6e" x="991.748047"/>
      <use xlink:href="#DejaVuSans-64" x="1055.126953"/>
      <use xlink:href="#DejaVuSans-65" x="1118.603516"/>
      <use xlink:href="#DejaVuSans-78" x="1178.376953"/>
      <use xlink:href="#DejaVuSans-29" x="1237.556641"/>
     </g>
    </g>
   </g>
   <g id="matplotlib.axis_2">
    <g id="ytick_1">
     <g id="line2d_24">
      <defs>
       <path id="mf42ab2bdcd" d="M 0 0 
L -3.5 0 
" style="stroke: #000000; stroke-width: 0.8"/>
      </defs>
      <g>
       <use xlink:href="#mf42ab2bdcd" x="54.02" y="243.630198" style="stroke: #000000; stroke-width: 0.8"/>
      </g>
     </g>
     <g id="text_25">
      <!-- 0.00 -->
      <g transform="translate(24.754375 247.429417) scale(0.1 -0.1)">
       <defs>
        <path id="DejaVuSans-2e" d="M 684 794 
L 1344 794 
L 1344 0 
L 684 0 
L 684 794 
z
" transform="scale(0.015625)"/>
       </defs>
       <use xlink:href="#DejaVuSans-30"/>
       <use xlink:href="#DejaVuSans-2e" x="63.623047"/>
       <use xlink:href="#DejaVuSans-30" x="95.410156"/>
       <use xlink:href="#DejaVuSans-30" x="159.033203"/>
      </g>
     </g>
    </g>
    <g id="ytick_2">
     <g id="line2d_25">
      <g>
       <use xlink:href="#mf42ab2bdcd" x="54.02" y="212.722699" style="stroke: #000000; stroke-width: 0.8"/>
      </g>
     </g>
     <g id="text_26">
      <!-- 0.02 -->
      <g transform="translate(24.754375 216.521918) scale(0.1 -0.1)">
       <use xlink:href="#DejaVuSans-30"/>
       <use xlink:href="#DejaVuSans-2e" x="63.623047"/>
       <use xlink:href="#DejaVuSans-30" x="95.410156"/>
       <use xlink:href="#DejaVuSans-32" x="159.033203"/>
      </g>
     </g>
    </g>
    <g id="ytick_3">
     <g id="line2d_26">
      <g>
       <use xlink:href="#mf42ab2bdcd" x="54.02" y="181.815201" style="stroke: #000000; stroke-width: 0.8"/>
      </g>
     </g>
     <g id="text_27">
      <!-- 0.04 -->
      <g transform="translate(24.754375 185.614419) scale(0.1 -0.1)">
       <use xlink:href="#DejaVuSans-30"/>
       <use xlink:href="#DejaVuSans-2e" x="63.623047"/>
       <use xlink:href="#DejaVuSans-30" x="95.410156"/>
       <use xlink:href="#DejaVuSans-34" x="159.033203"/>
      </g>
     </g>
    </g>
    <g id="ytick_4">
     <g id="line2d_27">
      <g>
       <use xlink:href="#mf42ab2bdcd" x="54.02" y="150.907702" style="stroke: #000000; stroke-width: 0.8"/>
      </g>
     </g>
     <g id="text_28">
      <!-- 0.06 -->
      <g transform="translate(24.754375 154.706921) scale(0.1 -0.1)">
       <use xlink:href="#DejaVuSans-30"/>
       <use xlink:href="#DejaVuSans-2e" x="63.623047"/>
       <use xlink:href="#DejaVuSans-30" x="95.410156"/>
       <use xlink:href="#DejaVuSans-36" x="159.033203"/>
      </g>
     </g>
    </g>
    <g id="ytick_5">
     <g id="line2d_28">
      <g>
       <use xlink:href="#mf42ab2bdcd" x="54.02" y="120.000203" style="stroke: #000000; stroke-width: 0.8"/>
      </g>
     </g>
     <g id="text_29">
      <!-- 0.08 -->
      <g transform="translate(24.754375 123.799422) scale(0.1 -0.1)">
       <use xlink:href="#DejaVuSans-30"/>
       <use xlink:href="#DejaVuSans-2e" x="63.623047"/>
       <use xlink:href="#DejaVuSans-30" x="95.410156"/>
       <use xlink:href="#DejaVuSans-38" x="159.033203"/>
      </g>
     </g>
    </g>
    <g id="ytick_6">
     <g id="line2d_29">
      <g>
       <use xlink:href="#mf42ab2bdcd" x="54.02" y="89.092704" style="stroke: #000000; stroke-width: 0.8"/>
      </g>
     </g>
     <g id="text_30">
      <!-- 0.10 -->
      <g transform="translate(24.754375 92.891923) scale(0.1 -0.1)">
       <use xlink:href="#DejaVuSans-30"/>
       <use xlink:href="#DejaVuSans-2e" x="63.623047"/>
       <use xlink:href="#DejaVuSans-31" x="95.410156"/>
       <use xlink:href="#DejaVuSans-30" x="159.033203"/>
      </g>
     </g>
    </g>
    <g id="ytick_7">
     <g id="line2d_30">
      <g>
       <use xlink:href="#mf42ab2bdcd" x="54.02" y="58.185206" style="stroke: #000000; stroke-width: 0.8"/>
      </g>
     </g>
     <g id="text_31">
      <!-- 0.12 -->
      <g transform="translate(24.754375 61.984424) scale(0.1 -0.1)">
       <use xlink:href="#DejaVuSans-30"/>
       <use xlink:href="#DejaVuSans-2e" x="63.623047"/>
       <use xlink:href="#DejaVuSans-31" x="95.410156"/>
       <use xlink:href="#DejaVuSans-32" x="159.033203"/>
      </g>
     </g>
    </g>
    <g id="ytick_8">
     <g id="line2d_31">
      <g>
       <use xlink:href="#mf42ab2bdcd" x="54.02" y="27.277707" style="stroke: #000000; stroke-width: 0.8"/>
      </g>
     </g>
     <g id="text_32">
      <!-- 0.14 -->
      <g transform="translate(24.754375 31.076926) scale(0.1 -0.1)">
       <use xlink:href="#DejaVuSans-30"/>
       <use xlink:href="#DejaVuSans-2e" x="63.623047"/>
       <use xlink:href="#DejaVuSans-31" x="95.410156"/>
       <use xlink:href="#DejaVuSans-34" x="159.033203"/>
      </g>
     </g>
    </g>
    <g id="text_33">
     <!-- Proportion of Samples -->
     <g transform="translate(18.674687 190.401974) rotate(-90) scale(0.1 -0.1)">
      <use xlink:href="#DejaVuSans-50"/>
      <use xlink:href="#DejaVuSans-72" x="58.552734"/>
      <use xlink:href="#DejaVuSans-6f" x="97.416016"/>
      <use xlink:href="#DejaVuSans-70" x="158.597656"/>
      <use xlink:href="#DejaVuSans-6f" x="222.074219"/>
      <use xlink:href="#DejaVuSans-72" x="283.255859"/>
      <use xlink:href="#DejaVuSans-74" x="324.369141"/>
      <use xlink:href="#DejaVuSans-69" x="363.578125"/>
      <use xlink:href="#DejaVuSans-6f" x="391.361328"/>
      <use xlink:href="#DejaVuSans-6e" x="452.542969"/>
      <use xlink:href="#DejaVuSans-20" x="515.921875"/>
      <use xlink:href="#DejaVuSans-6f" x="547.708984"/>
      <use xlink:href="#DejaVuSans-66" x="608.890625"/>
      <use xlink:href="#DejaVuSans-20" x="644.095703"/>
      <use xlink:href="#DejaVuSans-53" x="675.882812"/>
      <use xlink:href="#DejaVuSans-61" x="739.359375"/>
      <use xlink:href="#DejaVuSans-6d" x="800.638672"/>
      <use xlink:href="#DejaVuSans-70" x="898.050781"/>
      <use xlink:href="#DejaVuSans-6c" x="961.527344"/>
      <use xlink:href="#DejaVuSans-65" x="989.310547"/>
      <use xlink:href="#DejaVuSans-73" x="1050.833984"/>
     </g>
    </g>
   </g>
   <g id="patch_72">
    <path d="M 54.02 243.630198 
L 54.02 26.88 
" style="fill: none; stroke: #000000; stroke-width: 0.8; stroke-linejoin: miter; stroke-linecap: square"/>
   </g>
   <g id="patch_73">
    <path d="M 853.2 243.630198 
L 853.2 26.88 
" style="fill: none; stroke: #000000; stroke-width: 0.8; stroke-linejoin: miter; stroke-linecap: square"/>
   </g>
   <g id="patch_74">
    <path d="M 54.02 243.630198 
L 853.2 243.630198 
" style="fill: none; stroke: #000000; stroke-width: 0.8; stroke-linejoin: miter; stroke-linecap: square"/>
   </g>
   <g id="patch_75">
    <path d="M 54.02 26.88 
L 853.2 26.88 
" style="fill: none; stroke: #000000; stroke-width: 0.8; stroke-linejoin: miter; stroke-linecap: square"/>
   </g>
   <g id="text_34">
    <!-- Relative Class Distribution per Split -->
    <g transform="translate(347.726875 20.88) scale(0.12 -0.12)">
     <defs>
      <path id="DejaVuSans-52" d="M 2841 2188 
Q 3044 2119 3236 1894 
Q 3428 1669 3622 1275 
L 4263 0 
L 3584 0 
L 2988 1197 
Q 2756 1666 2539 1819 
Q 2322 1972 1947 1972 
L 1259 1972 
L 1259 0 
L 628 0 
L 628 4666 
L 2053 4666 
Q 2853 4666 3247 4331 
Q 3641 3997 3641 3322 
Q 3641 2881 3436 2590 
Q 3231 2300 2841 2188 
z
M 1259 4147 
L 1259 2491 
L 2053 2491 
Q 2509 2491 2742 2702 
Q 2975 2913 2975 3322 
Q 2975 3731 2742 3939 
Q 2509 4147 2053 4147 
L 1259 4147 
z
" transform="scale(0.015625)"/>
     </defs>
     <use xlink:href="#DejaVuSans-52"/>
     <use xlink:href="#DejaVuSans-65" x="64.982422"/>
     <use xlink:href="#DejaVuSans-6c" x="126.505859"/>
     <use xlink:href="#DejaVuSans-61" x="154.289062"/>
     <use xlink:href="#DejaVuSans-74" x="215.568359"/>
     <use xlink:href="#DejaVuSans-69" x="254.777344"/>
     <use xlink:href="#DejaVuSans-76" x="282.560547"/>
     <use xlink:href="#DejaVuSans-65" x="341.740234"/>
     <use xlink:href="#DejaVuSans-20" x="403.263672"/>
     <use xlink:href="#DejaVuSans-43" x="435.050781"/>
     <use xlink:href="#DejaVuSans-6c" x="504.875"/>
     <use xlink:href="#DejaVuSans-61" x="532.658203"/>
     <use xlink:href="#DejaVuSans-73" x="593.9375"/>
     <use xlink:href="#DejaVuSans-73" x="646.037109"/>
     <use xlink:href="#DejaVuSans-20" x="698.136719"/>
     <use xlink:href="#DejaVuSans-44" x="729.923828"/>
     <use xlink:href="#DejaVuSans-69" x="806.925781"/>
     <use xlink:href="#DejaVuSans-73" x="834.708984"/>
     <use xlink:href="#DejaVuSans-74" x="886.808594"/>
     <use xlink:href="#DejaVuSans-72" x="926.017578"/>
     <use xlink:href="#DejaVuSans-69" x="967.130859"/>
     <use xlink:href="#DejaVuSans-62" x="994.914062"/>
     <use xlink:href="#DejaVuSans-75" x="1058.390625"/>
     <use xlink:href="#DejaVuSans-74" x="1121.769531"/>
     <use xlink:href="#DejaVuSans-69" x="1160.978516"/>
     <use xlink:href="#DejaVuSans-6f" x="1188.761719"/>
     <use xlink:href="#DejaVuSans-6e" x="1249.943359"/>
     <use xlink:href="#DejaVuSans-20" x="1313.322266"/>
     <use xlink:href="#DejaVuSans-70" x="1345.109375"/>
     <use xlink:href="#DejaVuSans-65" x="1408.585938"/>
     <use xlink:href="#DejaVuSans-72" x="1470.109375"/>
     <use xlink:href="#DejaVuSans-20" x="1511.222656"/>
     <use xlink:href="#DejaVuSans-53" x="1543.009766"/>
     <use xlink:href="#DejaVuSans-70" x="1606.486328"/>
     <use xlink:href="#DejaVuSans-6c" x="1669.962891"/>
     <use xlink:href="#DejaVuSans-69" x="1697.746094"/>
     <use xlink:href="#DejaVuSans-74" x="1725.529297"/>
    </g>
   </g>
   <g id="legend_1">
    <g id="patch_76">
     <path d="M 764.81875 78.914375 
L 846.2 78.914375 
Q 848.2 78.914375 848.2 76.914375 
L 848.2 33.88 
Q 848.2 31.88 846.2 31.88 
L 764.81875 31.88 
Q 762.81875 31.88 762.81875 33.88 
L 762.81875 76.914375 
Q 762.81875 78.914375 764.81875 78.914375 
z
" style="fill: #ffffff; opacity: 0.8; stroke: #cccccc; stroke-linejoin: miter"/>
    </g>
    <g id="patch_77">
     <path d="M 766.81875 43.478437 
L 786.81875 43.478437 
L 786.81875 36.478437 
L 766.81875 36.478437 
z
" style="fill: #1f77b4"/>
    </g>
    <g id="text_35">
     <!-- Train -->
     <g transform="translate(794.81875 43.478437) scale(0.1 -0.1)">
      <use xlink:href="#DejaVuSans-54"/>
      <use xlink:href="#DejaVuSans-72" x="46.333984"/>
      <use xlink:href="#DejaVuSans-61" x="87.447266"/>
      <use xlink:href="#DejaVuSans-69" x="148.726562"/>
      <use xlink:href="#DejaVuSans-6e" x="176.509766"/>
     </g>
    </g>
    <g id="patch_78">
     <path d="M 766.81875 58.156563 
L 786.81875 58.156563 
L 786.81875 51.156563 
L 766.81875 51.156563 
z
" style="fill: #ff7f0e"/>
    </g>
    <g id="text_36">
     <!-- Validation -->
     <g transform="translate(794.81875 58.156563) scale(0.1 -0.1)">
      <defs>
       <path id="DejaVuSans-56" d="M 1831 0 
L 50 4666 
L 709 4666 
L 2188 738 
L 3669 4666 
L 4325 4666 
L 2547 0 
L 1831 0 
z
" transform="scale(0.015625)"/>
      </defs>
      <use xlink:href="#DejaVuSans-56"/>
      <use xlink:href="#DejaVuSans-61" x="60.658203"/>
      <use xlink:href="#DejaVuSans-6c" x="121.9375"/>
      <use xlink:href="#DejaVuSans-69" x="149.720703"/>
      <use xlink:href="#DejaVuSans-64" x="177.503906"/>
      <use xlink:href="#DejaVuSans-61" x="240.980469"/>
      <use xlink:href="#DejaVuSans-74" x="302.259766"/>
      <use xlink:href="#DejaVuSans-69" x="341.46875"/>
      <use xlink:href="#DejaVuSans-6f" x="369.251953"/>
      <use xlink:href="#DejaVuSans-6e" x="430.433594"/>
     </g>
    </g>
    <g id="patch_79">
     <path d="M 766.81875 72.834687 
L 786.81875 72.834687 
L 786.81875 65.834687 
L 766.81875 65.834687 
z
" style="fill: #2ca02c"/>
    </g>
    <g id="text_37">
     <!-- Test -->
     <g transform="translate(794.81875 72.834687) scale(0.1 -0.1)">
      <use xlink:href="#DejaVuSans-54"/>
      <use xlink:href="#DejaVuSans-65" x="44.083984"/>
      <use xlink:href="#DejaVuSans-73" x="105.607422"/>
      <use xlink:href="#DejaVuSans-74" x="157.707031"/>
     </g>
    </g>
   </g>
  </g>
 </g>
 <defs>
  <clipPath id="p6c31c5698b">
   <rect x="54.02" y="26.88" width="799.18" height="216.750198"/>
  </clipPath>
 </defs>
</svg>
